<svg width="109" height="31" viewBox="0 0 109 31" fill="none" xmlns="http://www.w3.org/2000/svg">
<g filter="url(#filter0_d_436_7)">
<rect x="4" width="101" height="23" rx="11.5" fill="#FBC900"/>
<rect x="4.5" y="0.5" width="100" height="22" rx="11" stroke="black" stroke-opacity="0.15"/>
</g>
<g filter="url(#filter1_d_436_7)">
<path d="M19.1934 6.46875V7.39453H15.0801V15H13.9551V6.46875H19.1934ZM14.8164 9.94336H17.1426C17.7676 9.94336 18.2949 10.0488 18.7246 10.2598C19.1543 10.4668 19.4805 10.7578 19.7031 11.1328C19.9258 11.5078 20.0371 11.9473 20.0371 12.4512C20.0371 12.8262 19.9746 13.1699 19.8496 13.4824C19.7246 13.791 19.5391 14.0605 19.293 14.291C19.0469 14.5176 18.7441 14.6934 18.3848 14.8184C18.0254 14.9395 17.6113 15 17.1426 15H13.9551V6.46875H15.0859V14.0801H17.1426C17.5605 14.0801 17.8984 14.0039 18.1562 13.8516C18.418 13.6953 18.6094 13.4922 18.7305 13.2422C18.8516 12.9922 18.9121 12.7246 18.9121 12.4395C18.9121 12.1543 18.8516 11.8926 18.7305 11.6543C18.6094 11.416 18.418 11.2266 18.1562 11.0859C17.8984 10.9414 17.5605 10.8691 17.1426 10.8691H14.8164V9.94336ZM25.6328 8.66016V9.55664H22.5684V8.66016H25.6328ZM26.5879 8.66016V15H25.5039V8.66016H26.5879ZM22.3047 8.66016H23.3945L23.2305 11.7188C23.2031 12.1914 23.1582 12.6094 23.0957 12.9727C23.0371 13.332 22.9551 13.6406 22.8496 13.8984C22.748 14.1562 22.6191 14.3672 22.4629 14.5312C22.3105 14.6914 22.127 14.8105 21.9121 14.8887C21.6973 14.9629 21.4492 15 21.168 15H20.8281V14.0449L21.0625 14.0273C21.2305 14.0156 21.373 13.9766 21.4902 13.9102C21.6113 13.8438 21.7129 13.7461 21.7949 13.6172C21.877 13.4844 21.9434 13.3145 21.9941 13.1074C22.0488 12.9004 22.0898 12.6543 22.1172 12.3691C22.1484 12.084 22.1719 11.752 22.1875 11.373L22.3047 8.66016ZM32.0723 13.916V10.6523C32.0723 10.4023 32.0215 10.1855 31.9199 10.002C31.8223 9.81445 31.6738 9.66992 31.4746 9.56836C31.2754 9.4668 31.0293 9.41602 30.7363 9.41602C30.4629 9.41602 30.2227 9.46289 30.0156 9.55664C29.8125 9.65039 29.6523 9.77344 29.5352 9.92578C29.4219 10.0781 29.3652 10.2422 29.3652 10.418H28.2812C28.2812 10.1914 28.3398 9.9668 28.457 9.74414C28.5742 9.52148 28.7422 9.32031 28.9609 9.14062C29.1836 8.95703 29.4492 8.8125 29.7578 8.70703C30.0703 8.59766 30.418 8.54297 30.8008 8.54297C31.2617 8.54297 31.668 8.62109 32.0195 8.77734C32.375 8.93359 32.6523 9.16992 32.8516 9.48633C33.0547 9.79883 33.1562 10.1914 33.1562 10.6641V13.6172C33.1562 13.8281 33.1738 14.0527 33.209 14.291C33.248 14.5293 33.3047 14.7344 33.3789 14.9062V15H32.248C32.1934 14.875 32.1504 14.709 32.1191 14.502C32.0879 14.291 32.0723 14.0957 32.0723 13.916ZM32.2598 11.1562L32.2715 11.918H31.1758C30.8672 11.918 30.5918 11.9434 30.3496 11.9941C30.1074 12.041 29.9043 12.1133 29.7402 12.2109C29.5762 12.3086 29.4512 12.4316 29.3652 12.5801C29.2793 12.7246 29.2363 12.8945 29.2363 13.0898C29.2363 13.2891 29.2812 13.4707 29.3711 13.6348C29.4609 13.7988 29.5957 13.9297 29.7754 14.0273C29.959 14.1211 30.1836 14.168 30.4492 14.168C30.7812 14.168 31.0742 14.0977 31.3281 13.957C31.582 13.8164 31.7832 13.6445 31.9316 13.4414C32.084 13.2383 32.166 13.041 32.1777 12.8496L32.6406 13.3711C32.6133 13.5352 32.5391 13.7168 32.418 13.916C32.2969 14.1152 32.1348 14.3066 31.9316 14.4902C31.7324 14.6699 31.4941 14.8203 31.2168 14.9414C30.9434 15.0586 30.6348 15.1172 30.291 15.1172C29.8613 15.1172 29.4844 15.0332 29.1602 14.8652C28.8398 14.6973 28.5898 14.4727 28.4102 14.1914C28.2344 13.9062 28.1465 13.5879 28.1465 13.2363C28.1465 12.8965 28.2129 12.5977 28.3457 12.3398C28.4785 12.0781 28.6699 11.8613 28.9199 11.6895C29.1699 11.5137 29.4707 11.3809 29.8223 11.291C30.1738 11.2012 30.5664 11.1562 31 11.1562H32.2598ZM38.957 8.66016V9.55664H36.0273V15H34.9434V8.66016H38.957ZM39.4961 11.9004V11.7656C39.4961 11.3086 39.5625 10.8848 39.6953 10.4941C39.8281 10.0996 40.0195 9.75781 40.2695 9.46875C40.5195 9.17578 40.8223 8.94922 41.1777 8.78906C41.5332 8.625 41.9316 8.54297 42.373 8.54297C42.8184 8.54297 43.2188 8.625 43.5742 8.78906C43.9336 8.94922 44.2383 9.17578 44.4883 9.46875C44.7422 9.75781 44.9355 10.0996 45.0684 10.4941C45.2012 10.8848 45.2676 11.3086 45.2676 11.7656V11.9004C45.2676 12.3574 45.2012 12.7812 45.0684 13.1719C44.9355 13.5625 44.7422 13.9043 44.4883 14.1973C44.2383 14.4863 43.9355 14.7129 43.5801 14.877C43.2285 15.0371 42.8301 15.1172 42.3848 15.1172C41.9395 15.1172 41.5391 15.0371 41.1836 14.877C40.8281 14.7129 40.5234 14.4863 40.2695 14.1973C40.0195 13.9043 39.8281 13.5625 39.6953 13.1719C39.5625 12.7812 39.4961 12.3574 39.4961 11.9004ZM40.5801 11.7656V11.9004C40.5801 12.2168 40.6172 12.5156 40.6914 12.7969C40.7656 13.0742 40.877 13.3203 41.0254 13.5352C41.1777 13.75 41.3672 13.9199 41.5938 14.0449C41.8203 14.166 42.084 14.2266 42.3848 14.2266C42.6816 14.2266 42.9414 14.166 43.1641 14.0449C43.3906 13.9199 43.5781 13.75 43.7266 13.5352C43.875 13.3203 43.9863 13.0742 44.0605 12.7969C44.1387 12.5156 44.1777 12.2168 44.1777 11.9004V11.7656C44.1777 11.4531 44.1387 11.1582 44.0605 10.8809C43.9863 10.5996 43.873 10.3516 43.7207 10.1367C43.5723 9.91797 43.3848 9.74609 43.1582 9.62109C42.9355 9.49609 42.6738 9.43359 42.373 9.43359C42.0762 9.43359 41.8145 9.49609 41.5879 9.62109C41.3652 9.74609 41.1777 9.91797 41.0254 10.1367C40.877 10.3516 40.7656 10.5996 40.6914 10.8809C40.6172 11.1582 40.5801 11.4531 40.5801 11.7656ZM47.3477 8.66016H48.4316L48.3379 11.0332C48.3145 11.6348 48.2461 12.1543 48.1328 12.5918C48.0195 13.0293 47.875 13.4023 47.6992 13.7109C47.5234 14.0156 47.3262 14.2715 47.1074 14.4785C46.8926 14.6855 46.6699 14.8594 46.4395 15H45.9004L45.9297 14.1152L46.1523 14.1094C46.2812 13.957 46.4062 13.8008 46.5273 13.6406C46.6484 13.4766 46.7598 13.2832 46.8613 13.0605C46.9629 12.834 47.0469 12.5586 47.1133 12.2344C47.1836 11.9062 47.2285 11.5059 47.248 11.0332L47.3477 8.66016ZM47.6172 8.66016H51.4316V15H50.3477V9.66211H47.6172V8.66016ZM45.6543 14.1094H52.2461V16.8691H51.1621V15H46.7383V16.8691H45.6484L45.6543 14.1094ZM57.1855 13.916V10.6523C57.1855 10.4023 57.1348 10.1855 57.0332 10.002C56.9355 9.81445 56.7871 9.66992 56.5879 9.56836C56.3887 9.4668 56.1426 9.41602 55.8496 9.41602C55.5762 9.41602 55.3359 9.46289 55.1289 9.55664C54.9258 9.65039 54.7656 9.77344 54.6484 9.92578C54.5352 10.0781 54.4785 10.2422 54.4785 10.418H53.3945C53.3945 10.1914 53.4531 9.9668 53.5703 9.74414C53.6875 9.52148 53.8555 9.32031 54.0742 9.14062C54.2969 8.95703 54.5625 8.8125 54.8711 8.70703C55.1836 8.59766 55.5312 8.54297 55.9141 8.54297C56.375 8.54297 56.7812 8.62109 57.1328 8.77734C57.4883 8.93359 57.7656 9.16992 57.9648 9.48633C58.168 9.79883 58.2695 10.1914 58.2695 10.6641V13.6172C58.2695 13.8281 58.2871 14.0527 58.3223 14.291C58.3613 14.5293 58.418 14.7344 58.4922 14.9062V15H57.3613C57.3066 14.875 57.2637 14.709 57.2324 14.502C57.2012 14.291 57.1855 14.0957 57.1855 13.916ZM57.373 11.1562L57.3848 11.918H56.2891C55.9805 11.918 55.7051 11.9434 55.4629 11.9941C55.2207 12.041 55.0176 12.1133 54.8535 12.2109C54.6895 12.3086 54.5645 12.4316 54.4785 12.5801C54.3926 12.7246 54.3496 12.8945 54.3496 13.0898C54.3496 13.2891 54.3945 13.4707 54.4844 13.6348C54.5742 13.7988 54.709 13.9297 54.8887 14.0273C55.0723 14.1211 55.2969 14.168 55.5625 14.168C55.8945 14.168 56.1875 14.0977 56.4414 13.957C56.6953 13.8164 56.8965 13.6445 57.0449 13.4414C57.1973 13.2383 57.2793 13.041 57.291 12.8496L57.7539 13.3711C57.7266 13.5352 57.6523 13.7168 57.5312 13.916C57.4102 14.1152 57.248 14.3066 57.0449 14.4902C56.8457 14.6699 56.6074 14.8203 56.3301 14.9414C56.0566 15.0586 55.748 15.1172 55.4043 15.1172C54.9746 15.1172 54.5977 15.0332 54.2734 14.8652C53.9531 14.6973 53.7031 14.4727 53.5234 14.1914C53.3477 13.9062 53.2598 13.5879 53.2598 13.2363C53.2598 12.8965 53.3262 12.5977 53.459 12.3398C53.5918 12.0781 53.7832 11.8613 54.0332 11.6895C54.2832 11.5137 54.584 11.3809 54.9355 11.291C55.2871 11.2012 55.6797 11.1562 56.1133 11.1562H57.373ZM61.0586 9.87891V17.4375H59.9688V8.66016H60.9648L61.0586 9.87891ZM65.3301 11.7773V11.9004C65.3301 12.3613 65.2754 12.7891 65.166 13.1836C65.0566 13.5742 64.8965 13.9141 64.6855 14.2031C64.4785 14.4922 64.2227 14.7168 63.918 14.877C63.6133 15.0371 63.2637 15.1172 62.8691 15.1172C62.4668 15.1172 62.1113 15.0508 61.8027 14.918C61.4941 14.7852 61.2324 14.5918 61.0176 14.3379C60.8027 14.084 60.6309 13.7793 60.502 13.4238C60.377 13.0684 60.291 12.668 60.2441 12.2227V11.5664C60.291 11.0977 60.3789 10.6777 60.5078 10.3066C60.6367 9.93555 60.8066 9.61914 61.0176 9.35742C61.2324 9.0918 61.4922 8.89062 61.7969 8.75391C62.1016 8.61328 62.4531 8.54297 62.8516 8.54297C63.25 8.54297 63.6035 8.62109 63.9121 8.77734C64.2207 8.92969 64.4805 9.14844 64.6914 9.43359C64.9023 9.71875 65.0605 10.0605 65.166 10.459C65.2754 10.8535 65.3301 11.293 65.3301 11.7773ZM64.2402 11.9004V11.7773C64.2402 11.4609 64.207 11.1641 64.1406 10.8867C64.0742 10.6055 63.9707 10.3594 63.8301 10.1484C63.6934 9.93359 63.5176 9.76562 63.3027 9.64453C63.0879 9.51953 62.832 9.45703 62.5352 9.45703C62.2617 9.45703 62.0234 9.50391 61.8203 9.59766C61.6211 9.69141 61.4512 9.81836 61.3105 9.97852C61.1699 10.1348 61.0547 10.3145 60.9648 10.5176C60.8789 10.7168 60.8145 10.9238 60.7715 11.1387V12.6562C60.8496 12.9297 60.959 13.1875 61.0996 13.4297C61.2402 13.668 61.4277 13.8613 61.6621 14.0098C61.8965 14.1543 62.1914 14.2266 62.5469 14.2266C62.8398 14.2266 63.0918 14.166 63.3027 14.0449C63.5176 13.9199 63.6934 13.75 63.8301 13.5352C63.9707 13.3203 64.0742 13.0742 64.1406 12.7969C64.207 12.5156 64.2402 12.2168 64.2402 11.9004ZM71.0137 11.4082V12.2871H67.6621V11.4082H71.0137ZM67.8906 8.66016V15H66.8066V8.66016H67.8906ZM71.8926 8.66016V15H70.8027V8.66016H71.8926ZM73.3516 11.9004V11.7656C73.3516 11.3086 73.418 10.8848 73.5508 10.4941C73.6836 10.0996 73.875 9.75781 74.125 9.46875C74.375 9.17578 74.6777 8.94922 75.0332 8.78906C75.3887 8.625 75.7871 8.54297 76.2285 8.54297C76.6738 8.54297 77.0742 8.625 77.4297 8.78906C77.7891 8.94922 78.0938 9.17578 78.3438 9.46875C78.5977 9.75781 78.791 10.0996 78.9238 10.4941C79.0566 10.8848 79.123 11.3086 79.123 11.7656V11.9004C79.123 12.3574 79.0566 12.7812 78.9238 13.1719C78.791 13.5625 78.5977 13.9043 78.3438 14.1973C78.0938 14.4863 77.791 14.7129 77.4355 14.877C77.084 15.0371 76.6855 15.1172 76.2402 15.1172C75.7949 15.1172 75.3945 15.0371 75.0391 14.877C74.6836 14.7129 74.3789 14.4863 74.125 14.1973C73.875 13.9043 73.6836 13.5625 73.5508 13.1719C73.418 12.7812 73.3516 12.3574 73.3516 11.9004ZM74.4355 11.7656V11.9004C74.4355 12.2168 74.4727 12.5156 74.5469 12.7969C74.6211 13.0742 74.7324 13.3203 74.8809 13.5352C75.0332 13.75 75.2227 13.9199 75.4492 14.0449C75.6758 14.166 75.9395 14.2266 76.2402 14.2266C76.5371 14.2266 76.7969 14.166 77.0195 14.0449C77.2461 13.9199 77.4336 13.75 77.582 13.5352C77.7305 13.3203 77.8418 13.0742 77.916 12.7969C77.9941 12.5156 78.0332 12.2168 78.0332 11.9004V11.7656C78.0332 11.4531 77.9941 11.1582 77.916 10.8809C77.8418 10.5996 77.7285 10.3516 77.5762 10.1367C77.4277 9.91797 77.2402 9.74609 77.0137 9.62109C76.791 9.49609 76.5293 9.43359 76.2285 9.43359C75.9316 9.43359 75.6699 9.49609 75.4434 9.62109C75.2207 9.74609 75.0332 9.91797 74.8809 10.1367C74.7324 10.3516 74.6211 10.5996 74.5469 10.8809C74.4727 11.1582 74.4355 11.4531 74.4355 11.7656ZM83.0195 14.2266C83.2773 14.2266 83.5156 14.1738 83.7344 14.0684C83.9531 13.9629 84.1328 13.8184 84.2734 13.6348C84.4141 13.4473 84.4941 13.2344 84.5137 12.9961H85.5449C85.5254 13.3711 85.3984 13.7207 85.1641 14.0449C84.9336 14.3652 84.6309 14.625 84.2559 14.8242C83.8809 15.0195 83.4688 15.1172 83.0195 15.1172C82.543 15.1172 82.127 15.0332 81.7715 14.8652C81.4199 14.6973 81.127 14.4668 80.8926 14.1738C80.6621 13.8809 80.4883 13.5449 80.3711 13.166C80.2578 12.7832 80.2012 12.3789 80.2012 11.9531V11.707C80.2012 11.2812 80.2578 10.8789 80.3711 10.5C80.4883 10.1172 80.6621 9.7793 80.8926 9.48633C81.127 9.19336 81.4199 8.96289 81.7715 8.79492C82.127 8.62695 82.543 8.54297 83.0195 8.54297C83.5156 8.54297 83.9492 8.64453 84.3203 8.84766C84.6914 9.04688 84.9824 9.32031 85.1934 9.66797C85.4082 10.0117 85.5254 10.4023 85.5449 10.8398H84.5137C84.4941 10.5781 84.4199 10.3418 84.291 10.1309C84.166 9.91992 83.9941 9.75195 83.7754 9.62695C83.5605 9.49805 83.3086 9.43359 83.0195 9.43359C82.6875 9.43359 82.4082 9.5 82.1816 9.63281C81.959 9.76172 81.7812 9.9375 81.6484 10.1602C81.5195 10.3789 81.4258 10.623 81.3672 10.8926C81.3125 11.1582 81.2852 11.4297 81.2852 11.707V11.9531C81.2852 12.2305 81.3125 12.5039 81.3672 12.7734C81.4219 13.043 81.5137 13.2871 81.6426 13.5059C81.7754 13.7246 81.9531 13.9004 82.1758 14.0332C82.4023 14.1621 82.6836 14.2266 83.0195 14.2266ZM89.3477 8.66016V15H88.2578V8.66016H89.3477ZM91.4746 8.66016V9.53906H86.1719V8.66016H91.4746ZM93.4316 10.8398H95.3359C95.8477 10.8398 96.2793 10.9297 96.6309 11.1094C96.9824 11.2852 97.248 11.5293 97.4277 11.8418C97.6113 12.1504 97.7031 12.502 97.7031 12.8965C97.7031 13.1895 97.6523 13.4648 97.5508 13.7227C97.4492 13.9766 97.2969 14.1992 97.0938 14.3906C96.8945 14.582 96.6465 14.7324 96.3496 14.8418C96.0566 14.9473 95.7188 15 95.3359 15H92.6406V8.66016H93.7246V14.1094H95.3359C95.6484 14.1094 95.8984 14.0527 96.0859 13.9395C96.2734 13.8262 96.4082 13.6797 96.4902 13.5C96.5723 13.3203 96.6133 13.1328 96.6133 12.9375C96.6133 12.7461 96.5723 12.5586 96.4902 12.375C96.4082 12.1914 96.2734 12.0391 96.0859 11.918C95.8984 11.793 95.6484 11.7305 95.3359 11.7305H93.4316V10.8398Z" fill="black"/>
</g>
<defs>
<filter id="filter0_d_436_7" x="0" y="0" width="109" height="31" filterUnits="userSpaceOnUse" color-interpolation-filters="sRGB">
<feFlood flood-opacity="0" result="BackgroundImageFix"/>
<feColorMatrix in="SourceAlpha" type="matrix" values="0 0 0 0 0 0 0 0 0 0 0 0 0 0 0 0 0 0 127 0" result="hardAlpha"/>
<feOffset dy="4"/>
<feGaussianBlur stdDeviation="2"/>
<feComposite in2="hardAlpha" operator="out"/>
<feColorMatrix type="matrix" values="0 0 0 0 0 0 0 0 0 0 0 0 0 0 0 0 0 0 0.25 0"/>
<feBlend mode="normal" in2="BackgroundImageFix" result="effect1_dropShadow_436_7"/>
<feBlend mode="normal" in="SourceGraphic" in2="effect1_dropShadow_436_7" result="shape"/>
</filter>
<filter id="filter1_d_436_7" x="9.95508" y="6.46875" width="91.748" height="18.9688" filterUnits="userSpaceOnUse" color-interpolation-filters="sRGB">
<feFlood flood-opacity="0" result="BackgroundImageFix"/>
<feColorMatrix in="SourceAlpha" type="matrix" values="0 0 0 0 0 0 0 0 0 0 0 0 0 0 0 0 0 0 127 0" result="hardAlpha"/>
<feOffset dy="4"/>
<feGaussianBlur stdDeviation="2"/>
<feComposite in2="hardAlpha" operator="out"/>
<feColorMatrix type="matrix" values="0 0 0 0 0 0 0 0 0 0 0 0 0 0 0 0 0 0 0.25 0"/>
<feBlend mode="normal" in2="BackgroundImageFix" result="effect1_dropShadow_436_7"/>
<feBlend mode="normal" in="SourceGraphic" in2="effect1_dropShadow_436_7" result="shape"/>
</filter>
</defs>
</svg>
