<svg width="143" height="43" viewBox="0 0 143 43" fill="none" xmlns="http://www.w3.org/2000/svg">
<g filter="url(#filter0_d_31_23)">
<rect x="2" y="32" width="21" height="121" rx="10" transform="rotate(-90 2 32)" fill="#F2EAEF" fill-opacity="0.77" shape-rendering="crispEdges"/>
</g>
<g filter="url(#filter1_d_31_23)">
<path d="M28.0288 14.3359V25H27.4355V14.3359H28.0288ZM34.7744 14.3359L29.9771 19.873H27.7871L27.7944 19.3311H29.6475L34.0127 14.3359H34.7744ZM34.3496 25L29.5449 19.8218L29.9038 19.3018L35.104 25H34.3496ZM36.0049 21.1768V20.8984C36.0049 20.3174 36.0879 19.7852 36.2539 19.3018C36.4248 18.8184 36.6641 18.4009 36.9717 18.0493C37.2793 17.6929 37.6455 17.417 38.0703 17.2217C38.5 17.0264 38.9761 16.9287 39.4985 16.9287C40.021 16.9287 40.4971 17.0264 40.9268 17.2217C41.3564 17.417 41.7251 17.6929 42.0327 18.0493C42.3452 18.4009 42.5845 18.8184 42.7505 19.3018C42.9165 19.7852 42.9995 20.3174 42.9995 20.8984V21.1768C42.9995 21.7578 42.9165 22.29 42.7505 22.7734C42.5845 23.2568 42.3477 23.6768 42.04 24.0332C41.7324 24.3848 41.3638 24.6582 40.9341 24.8535C40.5093 25.0488 40.0356 25.1465 39.5132 25.1465C38.9858 25.1465 38.5073 25.0488 38.0776 24.8535C37.6528 24.6582 37.2842 24.3848 36.9717 24.0332C36.6641 23.6768 36.4248 23.2568 36.2539 22.7734C36.0879 22.29 36.0049 21.7578 36.0049 21.1768ZM36.5908 20.8984V21.1768C36.5908 21.6357 36.6543 22.0728 36.7812 22.4878C36.9131 22.8979 37.1035 23.2642 37.3525 23.5864C37.6016 23.9038 37.9067 24.1553 38.2681 24.3408C38.6294 24.5215 39.0444 24.6118 39.5132 24.6118C39.9722 24.6118 40.3823 24.5215 40.7437 24.3408C41.105 24.1553 41.4077 23.9038 41.6519 23.5864C41.9009 23.2642 42.0889 22.8979 42.2158 22.4878C42.3477 22.0728 42.4136 21.6357 42.4136 21.1768V20.8984C42.4136 20.4492 42.3477 20.0195 42.2158 19.6094C42.0889 19.1992 41.9009 18.833 41.6519 18.5107C41.4028 18.1885 41.0977 17.9346 40.7363 17.749C40.375 17.5586 39.9624 17.4634 39.4985 17.4634C39.0347 17.4634 38.6221 17.5586 38.2607 17.749C37.9043 17.9346 37.5991 18.1885 37.3452 18.5107C37.0962 18.833 36.9082 19.1992 36.7812 19.6094C36.6543 20.0195 36.5908 20.4492 36.5908 20.8984ZM50.3018 20.686V21.2207H45.2993V20.686H50.3018ZM45.4897 17.0752V25H44.9038V17.0752H45.4897ZM50.7339 17.0752V25H50.1406V17.0752H50.7339ZM55.7363 17.0752V25H55.1504V17.0752H55.7363ZM58.7539 17.0752V17.6099H52.2646V17.0752H58.7539ZM65.0601 23.5425V19.4482C65.0601 19.0332 64.9722 18.6768 64.7964 18.3789C64.6206 18.0811 64.3643 17.854 64.0273 17.6978C63.6904 17.5366 63.2778 17.4561 62.7896 17.4561C62.3354 17.4561 61.9277 17.5366 61.5664 17.6978C61.21 17.854 60.9292 18.0688 60.7241 18.3423C60.519 18.6157 60.4165 18.9209 60.4165 19.2578L59.8306 19.2505C59.8306 18.9478 59.9014 18.6572 60.043 18.3789C60.1895 18.1006 60.3945 17.854 60.6582 17.6392C60.9268 17.4194 61.2417 17.2461 61.603 17.1191C61.9692 16.9922 62.3696 16.9287 62.8042 16.9287C63.3608 16.9287 63.8516 17.0239 64.2764 17.2144C64.7061 17.3999 65.0405 17.6807 65.2798 18.0566C65.519 18.4326 65.6387 18.9014 65.6387 19.4629V23.374C65.6387 23.6572 65.6582 23.9429 65.6973 24.231C65.7363 24.519 65.79 24.751 65.8584 24.9268V25H65.2212C65.1675 24.8145 65.126 24.5874 65.0967 24.3188C65.0723 24.0503 65.0601 23.7915 65.0601 23.5425ZM65.2505 20.5029L65.2651 21.0083H63.3315C62.8433 21.0083 62.4062 21.0547 62.0205 21.1475C61.6348 21.2402 61.3076 21.3721 61.0391 21.543C60.7705 21.7139 60.5654 21.9165 60.4238 22.1509C60.2822 22.3853 60.2114 22.6489 60.2114 22.9419C60.2114 23.2446 60.292 23.5229 60.4531 23.7769C60.6143 24.0308 60.8413 24.2334 61.1343 24.3848C61.4272 24.5312 61.7666 24.6045 62.1523 24.6045C62.6797 24.6045 63.146 24.5142 63.5513 24.3335C63.9614 24.1479 64.3057 23.8989 64.584 23.5864C64.8623 23.269 65.0649 22.9028 65.1919 22.4878L65.4482 22.9126C65.3652 23.1714 65.2358 23.4326 65.0601 23.6963C64.8843 23.96 64.6572 24.2017 64.3789 24.4214C64.1006 24.6362 63.7734 24.812 63.3975 24.9487C63.0215 25.0806 62.5942 25.1465 62.1157 25.1465C61.6128 25.1465 61.1733 25.0537 60.7974 24.8682C60.4263 24.6777 60.1382 24.4189 59.9331 24.0918C59.728 23.7598 59.6255 23.3813 59.6255 22.9565C59.6255 22.5903 59.7085 22.2559 59.8745 21.9531C60.0405 21.6504 60.2798 21.3916 60.5923 21.1768C60.9097 20.957 61.293 20.791 61.7422 20.6787C62.1963 20.5615 62.7065 20.5029 63.2729 20.5029H65.2505ZM68.7222 17.0752V25H68.1289V17.0752H68.7222ZM73.9517 17.0752L70.3848 21.2207H68.5024L68.4805 20.6787H70.1211L73.168 17.0752H73.9517ZM73.5562 25L70.0259 21.1548L70.3848 20.6641L74.3691 25H73.5562ZM78.2363 17.0752V25H77.6504V17.0752H78.2363ZM81.2539 17.0752V17.6099H74.7646V17.0752H81.2539ZM83.1436 20.0342H85.8462C86.4663 20.0342 86.9888 20.1416 87.4136 20.3564C87.8384 20.5713 88.1606 20.8667 88.3804 21.2427C88.6001 21.6138 88.71 22.0361 88.71 22.5098C88.71 22.8711 88.6465 23.2031 88.5195 23.5059C88.3975 23.8037 88.2144 24.0649 87.9702 24.2896C87.731 24.5142 87.4331 24.6899 87.0767 24.8169C86.7202 24.939 86.3101 25 85.8462 25H82.8433V17.0752H83.4219V24.4653H85.8462C86.3882 24.4653 86.8252 24.3726 87.1572 24.187C87.4941 24.0015 87.7383 23.7598 87.8896 23.4619C88.0459 23.1641 88.124 22.8467 88.124 22.5098C88.124 22.1826 88.0459 21.8726 87.8896 21.5796C87.7383 21.2817 87.4941 21.04 87.1572 20.8545C86.8252 20.6641 86.3882 20.5688 85.8462 20.5688H83.1436V20.0342ZM91.3101 17.0752V25H90.7241V17.0752H91.3101Z" fill="black"/>
</g>
<defs>
<filter id="filter0_d_31_23" x="0" y="0" width="143" height="43" filterUnits="userSpaceOnUse" color-interpolation-filters="sRGB">
<feFlood flood-opacity="0" result="BackgroundImageFix"/>
<feColorMatrix in="SourceAlpha" type="matrix" values="0 0 0 0 0 0 0 0 0 0 0 0 0 0 0 0 0 0 127 0" result="hardAlpha"/>
<feOffset dx="9"/>
<feGaussianBlur stdDeviation="5.5"/>
<feComposite in2="hardAlpha" operator="out"/>
<feColorMatrix type="matrix" values="0 0 0 0 0 0 0 0 0 0 0 0 0 0 0 0 0 0 0.25 0"/>
<feBlend mode="normal" in2="BackgroundImageFix" result="effect1_dropShadow_31_23"/>
<feBlend mode="normal" in="SourceGraphic" in2="effect1_dropShadow_31_23" result="shape"/>
</filter>
<filter id="filter1_d_31_23" x="25.4355" y="3.33594" width="85.8745" height="32.8105" filterUnits="userSpaceOnUse" color-interpolation-filters="sRGB">
<feFlood flood-opacity="0" result="BackgroundImageFix"/>
<feColorMatrix in="SourceAlpha" type="matrix" values="0 0 0 0 0 0 0 0 0 0 0 0 0 0 0 0 0 0 127 0" result="hardAlpha"/>
<feOffset dx="9"/>
<feGaussianBlur stdDeviation="5.5"/>
<feComposite in2="hardAlpha" operator="out"/>
<feColorMatrix type="matrix" values="0 0 0 0 0 0 0 0 0 0 0 0 0 0 0 0 0 0 0.25 0"/>
<feBlend mode="normal" in2="BackgroundImageFix" result="effect1_dropShadow_31_23"/>
<feBlend mode="normal" in="SourceGraphic" in2="effect1_dropShadow_31_23" result="shape"/>
</filter>
</defs>
</svg>
