<svg width="361" height="61" viewBox="0 0 361 61" fill="none" xmlns="http://www.w3.org/2000/svg">
<g filter="url(#filter0_d_31_9)">
<g filter="url(#filter1_d_31_9)">
<rect x="8" y="7" width="343" height="43" rx="10" fill="#539DCD" fill-opacity="0.75" shape-rendering="crispEdges"/>
<rect x="8" y="7" width="343" height="43" rx="10" stroke="#FBF2F2" stroke-opacity="0.54" shape-rendering="crispEdges"/>
</g>
<g filter="url(#filter2_d_31_9)">
<path d="M43.8516 20.7812V35H40.9219V23.0762H35.209V35H32.2793V20.7812H43.8516ZM49.0469 26.4648V39.0625H46.2344V24.4336H48.8418L49.0469 26.4648ZM55.7363 29.5996V29.8047C55.7363 30.5729 55.6452 31.2858 55.4629 31.9434C55.2871 32.6009 55.0267 33.1738 54.6816 33.6621C54.3366 34.1439 53.9069 34.5215 53.3926 34.7949C52.8848 35.0618 52.2988 35.1953 51.6348 35.1953C50.9902 35.1953 50.4303 35.0651 49.9551 34.8047C49.4798 34.5443 49.0794 34.1797 48.7539 33.7109C48.4349 33.2357 48.1777 32.6855 47.9824 32.0605C47.7871 31.4355 47.6374 30.765 47.5332 30.0488V29.5117C47.6374 28.7435 47.7871 28.0404 47.9824 27.4023C48.1777 26.7578 48.4349 26.2012 48.7539 25.7324C49.0794 25.2572 49.4766 24.8893 49.9453 24.6289C50.4206 24.3685 50.9772 24.2383 51.6152 24.2383C52.2858 24.2383 52.875 24.3652 53.3828 24.6191C53.8971 24.873 54.3268 25.2376 54.6719 25.7129C55.0234 26.1882 55.2871 26.7546 55.4629 27.4121C55.6452 28.0697 55.7363 28.7988 55.7363 29.5996ZM52.9141 29.8047V29.5996C52.9141 29.1504 52.875 28.737 52.7969 28.3594C52.7253 27.9753 52.6081 27.64 52.4453 27.3535C52.2891 27.0671 52.0807 26.8457 51.8203 26.6895C51.5664 26.5267 51.2572 26.4453 50.8926 26.4453C50.5085 26.4453 50.1797 26.5072 49.9062 26.6309C49.6393 26.7546 49.4212 26.9336 49.252 27.168C49.0827 27.4023 48.9557 27.6823 48.8711 28.0078C48.7865 28.3333 48.7344 28.7012 48.7148 29.1113V30.4688C48.7474 30.9505 48.8385 31.3835 48.9883 31.7676C49.138 32.1452 49.3691 32.4447 49.6816 32.666C49.9941 32.8874 50.4043 32.998 50.9121 32.998C51.2832 32.998 51.5957 32.9167 51.8496 32.7539C52.1035 32.5846 52.3086 32.3535 52.4648 32.0605C52.6276 31.7676 52.7415 31.429 52.8066 31.0449C52.8783 30.6608 52.9141 30.2474 52.9141 29.8047ZM57.0352 29.8242V29.6191C57.0352 28.8444 57.1458 28.1315 57.3672 27.4805C57.5885 26.8229 57.9108 26.2533 58.334 25.7715C58.7572 25.2897 59.278 24.9154 59.8965 24.6484C60.515 24.375 61.2246 24.2383 62.0254 24.2383C62.8262 24.2383 63.5391 24.375 64.1641 24.6484C64.7891 24.9154 65.3132 25.2897 65.7363 25.7715C66.166 26.2533 66.4915 26.8229 66.7129 27.4805C66.9342 28.1315 67.0449 28.8444 67.0449 29.6191V29.8242C67.0449 30.5924 66.9342 31.3053 66.7129 31.9629C66.4915 32.6139 66.166 33.1836 65.7363 33.6719C65.3132 34.1536 64.7923 34.528 64.1738 34.7949C63.5553 35.0618 62.8457 35.1953 62.0449 35.1953C61.2441 35.1953 60.5312 35.0618 59.9062 34.7949C59.2878 34.528 58.7637 34.1536 58.334 33.6719C57.9108 33.1836 57.5885 32.6139 57.3672 31.9629C57.1458 31.3053 57.0352 30.5924 57.0352 29.8242ZM59.8477 29.6191V29.8242C59.8477 30.2669 59.8867 30.6803 59.9648 31.0645C60.043 31.4486 60.1667 31.7871 60.3359 32.0801C60.5117 32.3665 60.7396 32.5911 61.0195 32.7539C61.2995 32.9167 61.6413 32.998 62.0449 32.998C62.4355 32.998 62.7708 32.9167 63.0508 32.7539C63.3307 32.5911 63.5553 32.3665 63.7246 32.0801C63.8939 31.7871 64.0176 31.4486 64.0957 31.0645C64.1803 30.6803 64.2227 30.2669 64.2227 29.8242V29.6191C64.2227 29.1895 64.1803 28.7858 64.0957 28.4082C64.0176 28.0241 63.8906 27.6855 63.7148 27.3926C63.5456 27.0931 63.321 26.8587 63.041 26.6895C62.7611 26.5202 62.4225 26.4355 62.0254 26.4355C61.6283 26.4355 61.2897 26.5202 61.0098 26.6895C60.7363 26.8587 60.5117 27.0931 60.3359 27.3926C60.1667 27.6855 60.043 28.0241 59.9648 28.4082C59.8867 28.7858 59.8477 29.1895 59.8477 29.6191ZM75.9609 24.4336V26.6406H71.5664V35H68.7539V24.4336H75.9609ZM79.9844 26.4648V39.0625H77.1719V24.4336H79.7793L79.9844 26.4648ZM86.6738 29.5996V29.8047C86.6738 30.5729 86.5827 31.2858 86.4004 31.9434C86.2246 32.6009 85.9642 33.1738 85.6191 33.6621C85.2741 34.1439 84.8444 34.5215 84.3301 34.7949C83.8223 35.0618 83.2363 35.1953 82.5723 35.1953C81.9277 35.1953 81.3678 35.0651 80.8926 34.8047C80.4173 34.5443 80.0169 34.1797 79.6914 33.7109C79.3724 33.2357 79.1152 32.6855 78.9199 32.0605C78.7246 31.4355 78.5749 30.765 78.4707 30.0488V29.5117C78.5749 28.7435 78.7246 28.0404 78.9199 27.4023C79.1152 26.7578 79.3724 26.2012 79.6914 25.7324C80.0169 25.2572 80.4141 24.8893 80.8828 24.6289C81.3581 24.3685 81.9147 24.2383 82.5527 24.2383C83.2233 24.2383 83.8125 24.3652 84.3203 24.6191C84.8346 24.873 85.2643 25.2376 85.6094 25.7129C85.9609 26.1882 86.2246 26.7546 86.4004 27.4121C86.5827 28.0697 86.6738 28.7988 86.6738 29.5996ZM83.8516 29.8047V29.5996C83.8516 29.1504 83.8125 28.737 83.7344 28.3594C83.6628 27.9753 83.5456 27.64 83.3828 27.3535C83.2266 27.0671 83.0182 26.8457 82.7578 26.6895C82.5039 26.5267 82.1947 26.4453 81.8301 26.4453C81.446 26.4453 81.1172 26.5072 80.8438 26.6309C80.5768 26.7546 80.3587 26.9336 80.1895 27.168C80.0202 27.4023 79.8932 27.6823 79.8086 28.0078C79.724 28.3333 79.6719 28.7012 79.6523 29.1113V30.4688C79.6849 30.9505 79.776 31.3835 79.9258 31.7676C80.0755 32.1452 80.3066 32.4447 80.6191 32.666C80.9316 32.8874 81.3418 32.998 81.8496 32.998C82.2207 32.998 82.5332 32.9167 82.7871 32.7539C83.041 32.5846 83.2461 32.3535 83.4023 32.0605C83.5651 31.7676 83.679 31.429 83.7441 31.0449C83.8158 30.6608 83.8516 30.2474 83.8516 29.8047ZM94.125 32.6172V27.9102C94.125 27.5716 94.0697 27.2819 93.959 27.041C93.8483 26.7936 93.6758 26.6016 93.4414 26.4648C93.2135 26.3281 92.9173 26.2598 92.5527 26.2598C92.2402 26.2598 91.9701 26.3151 91.7422 26.4258C91.5143 26.5299 91.3385 26.6829 91.2148 26.8848C91.0911 27.0801 91.0293 27.3112 91.0293 27.5781H88.2168C88.2168 27.1289 88.321 26.7025 88.5293 26.2988C88.7376 25.8952 89.0404 25.5404 89.4375 25.2344C89.8346 24.9219 90.3066 24.6777 90.8535 24.502C91.4069 24.3262 92.0254 24.2383 92.709 24.2383C93.5293 24.2383 94.2585 24.375 94.8965 24.6484C95.5345 24.9219 96.0358 25.332 96.4004 25.8789C96.7715 26.4258 96.957 27.1094 96.957 27.9297V32.4512C96.957 33.0306 96.9928 33.5059 97.0645 33.877C97.1361 34.2415 97.2402 34.5605 97.377 34.834V35H94.5352C94.3984 34.7135 94.2943 34.3555 94.2227 33.9258C94.1576 33.4896 94.125 33.0534 94.125 32.6172ZM94.4961 28.5645L94.5156 30.1562H92.9434C92.5723 30.1562 92.25 30.1986 91.9766 30.2832C91.7031 30.3678 91.4785 30.4883 91.3027 30.6445C91.127 30.7943 90.9967 30.9701 90.9121 31.1719C90.834 31.3737 90.7949 31.5951 90.7949 31.8359C90.7949 32.0768 90.8503 32.2949 90.9609 32.4902C91.0716 32.679 91.2311 32.8288 91.4395 32.9395C91.6478 33.0436 91.8919 33.0957 92.1719 33.0957C92.5951 33.0957 92.9629 33.0111 93.2754 32.8418C93.5879 32.6725 93.8288 32.4642 93.998 32.2168C94.1738 31.9694 94.265 31.735 94.2715 31.5137L95.0137 32.7051C94.9095 32.972 94.7663 33.2487 94.584 33.5352C94.4082 33.8216 94.1836 34.0918 93.9102 34.3457C93.6367 34.5931 93.3079 34.7982 92.9238 34.9609C92.5397 35.1172 92.084 35.1953 91.5566 35.1953C90.8861 35.1953 90.2773 35.0618 89.7305 34.7949C89.1901 34.5215 88.7604 34.1471 88.4414 33.6719C88.1289 33.1901 87.9727 32.6432 87.9727 32.0312C87.9727 31.4779 88.0768 30.9863 88.2852 30.5566C88.4935 30.127 88.7995 29.7656 89.2031 29.4727C89.6133 29.1732 90.1243 28.9486 90.7363 28.7988C91.3483 28.6426 92.0579 28.5645 92.8652 28.5645H94.4961ZM105.551 31.7676L108.324 24.4336H110.619L106.498 35H104.604L100.502 24.4336H102.797L105.551 31.7676ZM102.123 24.4336V35H99.3105V24.4336H102.123ZM109.047 35V24.4336H111.859V35H109.047ZM120.746 31.7676L123.52 24.4336H125.814L121.693 35H119.799L115.697 24.4336H117.992L120.746 31.7676ZM117.318 24.4336V35H114.506V24.4336H117.318ZM124.242 35V24.4336H127.055V35H124.242ZM131.459 27.5684H134.525C135.489 27.5684 136.309 27.7279 136.986 28.0469C137.67 28.3594 138.191 28.7956 138.549 29.3555C138.913 29.9154 139.096 30.5632 139.096 31.2988C139.096 31.8327 138.992 32.3275 138.783 32.7832C138.581 33.2324 138.285 33.623 137.895 33.9551C137.504 34.2871 137.025 34.5443 136.459 34.7266C135.893 34.9089 135.248 35 134.525 35H129.701V24.4336H132.523V32.8125H134.525C134.949 32.8125 135.287 32.7441 135.541 32.6074C135.801 32.4642 135.99 32.2786 136.107 32.0508C136.231 31.8229 136.293 31.5755 136.293 31.3086C136.293 31.0286 136.231 30.7747 136.107 30.5469C135.99 30.3125 135.801 30.1237 135.541 29.9805C135.287 29.8372 134.949 29.7656 134.525 29.7656H131.459V27.5684ZM143.607 24.4336V35H140.795V24.4336H143.607ZM155.424 32.998C155.769 32.998 156.075 32.9329 156.342 32.8027C156.609 32.666 156.817 32.4772 156.967 32.2363C157.123 31.9889 157.204 31.6992 157.211 31.3672H159.857C159.851 32.1094 159.652 32.7702 159.262 33.3496C158.871 33.9225 158.347 34.375 157.689 34.707C157.032 35.0326 156.296 35.1953 155.482 35.1953C154.662 35.1953 153.946 35.0586 153.334 34.7852C152.729 34.5117 152.224 34.1341 151.82 33.6523C151.417 33.1641 151.114 32.5977 150.912 31.9531C150.71 31.3021 150.609 30.6055 150.609 29.8633V29.5801C150.609 28.8314 150.71 28.1348 150.912 27.4902C151.114 26.8392 151.417 26.2728 151.82 25.791C152.224 25.3027 152.729 24.9219 153.334 24.6484C153.939 24.375 154.649 24.2383 155.463 24.2383C156.329 24.2383 157.087 24.4043 157.738 24.7363C158.396 25.0684 158.91 25.5436 159.281 26.1621C159.659 26.7741 159.851 27.5 159.857 28.3398H157.211C157.204 27.9883 157.13 27.6693 156.986 27.3828C156.85 27.0964 156.648 26.8685 156.381 26.6992C156.12 26.5234 155.798 26.4355 155.414 26.4355C155.004 26.4355 154.669 26.5234 154.408 26.6992C154.148 26.8685 153.946 27.1029 153.803 27.4023C153.66 27.6953 153.559 28.0306 153.5 28.4082C153.448 28.7793 153.422 29.1699 153.422 29.5801V29.8633C153.422 30.2734 153.448 30.6673 153.5 31.0449C153.552 31.4225 153.65 31.7578 153.793 32.0508C153.943 32.3438 154.148 32.5749 154.408 32.7441C154.669 32.9134 155.007 32.998 155.424 32.998ZM161.039 29.8242V29.6191C161.039 28.8444 161.15 28.1315 161.371 27.4805C161.592 26.8229 161.915 26.2533 162.338 25.7715C162.761 25.2897 163.282 24.9154 163.9 24.6484C164.519 24.375 165.229 24.2383 166.029 24.2383C166.83 24.2383 167.543 24.375 168.168 24.6484C168.793 24.9154 169.317 25.2897 169.74 25.7715C170.17 26.2533 170.495 26.8229 170.717 27.4805C170.938 28.1315 171.049 28.8444 171.049 29.6191V29.8242C171.049 30.5924 170.938 31.3053 170.717 31.9629C170.495 32.6139 170.17 33.1836 169.74 33.6719C169.317 34.1536 168.796 34.528 168.178 34.7949C167.559 35.0618 166.85 35.1953 166.049 35.1953C165.248 35.1953 164.535 35.0618 163.91 34.7949C163.292 34.528 162.768 34.1536 162.338 33.6719C161.915 33.1836 161.592 32.6139 161.371 31.9629C161.15 31.3053 161.039 30.5924 161.039 29.8242ZM163.852 29.6191V29.8242C163.852 30.2669 163.891 30.6803 163.969 31.0645C164.047 31.4486 164.171 31.7871 164.34 32.0801C164.516 32.3665 164.743 32.5911 165.023 32.7539C165.303 32.9167 165.645 32.998 166.049 32.998C166.439 32.998 166.775 32.9167 167.055 32.7539C167.335 32.5911 167.559 32.3665 167.729 32.0801C167.898 31.7871 168.021 31.4486 168.1 31.0645C168.184 30.6803 168.227 30.2669 168.227 29.8242V29.6191C168.227 29.1895 168.184 28.7858 168.1 28.4082C168.021 28.0241 167.895 27.6855 167.719 27.3926C167.549 27.0931 167.325 26.8587 167.045 26.6895C166.765 26.5202 166.426 26.4355 166.029 26.4355C165.632 26.4355 165.294 26.5202 165.014 26.6895C164.74 26.8587 164.516 27.0931 164.34 27.3926C164.171 27.6855 164.047 28.0241 163.969 28.4082C163.891 28.7858 163.852 29.1895 163.852 29.6191ZM177.885 24.4336V35H175.062V24.4336H177.885ZM181.283 24.4336V26.6113H171.713V24.4336H181.283ZM185.531 26.4648V39.0625H182.719V24.4336H185.326L185.531 26.4648ZM192.221 29.5996V29.8047C192.221 30.5729 192.13 31.2858 191.947 31.9434C191.771 32.6009 191.511 33.1738 191.166 33.6621C190.821 34.1439 190.391 34.5215 189.877 34.7949C189.369 35.0618 188.783 35.1953 188.119 35.1953C187.475 35.1953 186.915 35.0651 186.439 34.8047C185.964 34.5443 185.564 34.1797 185.238 33.7109C184.919 33.2357 184.662 32.6855 184.467 32.0605C184.271 31.4355 184.122 30.765 184.018 30.0488V29.5117C184.122 28.7435 184.271 28.0404 184.467 27.4023C184.662 26.7578 184.919 26.2012 185.238 25.7324C185.564 25.2572 185.961 24.8893 186.43 24.6289C186.905 24.3685 187.462 24.2383 188.1 24.2383C188.77 24.2383 189.359 24.3652 189.867 24.6191C190.382 24.873 190.811 25.2376 191.156 25.7129C191.508 26.1882 191.771 26.7546 191.947 27.4121C192.13 28.0697 192.221 28.7988 192.221 29.5996ZM189.398 29.8047V29.5996C189.398 29.1504 189.359 28.737 189.281 28.3594C189.21 27.9753 189.092 27.64 188.93 27.3535C188.773 27.0671 188.565 26.8457 188.305 26.6895C188.051 26.5267 187.742 26.4453 187.377 26.4453C186.993 26.4453 186.664 26.5072 186.391 26.6309C186.124 26.7546 185.906 26.9336 185.736 27.168C185.567 27.4023 185.44 27.6823 185.355 28.0078C185.271 28.3333 185.219 28.7012 185.199 29.1113V30.4688C185.232 30.9505 185.323 31.3835 185.473 31.7676C185.622 32.1452 185.854 32.4447 186.166 32.666C186.479 32.8874 186.889 32.998 187.396 32.998C187.768 32.998 188.08 32.9167 188.334 32.7539C188.588 32.5846 188.793 32.3535 188.949 32.0605C189.112 31.7676 189.226 31.429 189.291 31.0449C189.363 30.6608 189.398 30.2474 189.398 29.8047ZM196.986 33.8086L199.789 24.4336H202.807L198.559 36.5918C198.467 36.8587 198.344 37.1452 198.188 37.4512C198.038 37.7572 197.833 38.0469 197.572 38.3203C197.318 38.6003 196.996 38.8281 196.605 39.0039C196.221 39.1797 195.749 39.2676 195.189 39.2676C194.923 39.2676 194.704 39.2513 194.535 39.2188C194.366 39.1862 194.164 39.1406 193.93 39.082V37.0215C194.001 37.0215 194.076 37.0215 194.154 37.0215C194.232 37.028 194.307 37.0312 194.379 37.0312C194.75 37.0312 195.053 36.9889 195.287 36.9043C195.521 36.8197 195.71 36.6895 195.854 36.5137C195.997 36.3444 196.111 36.123 196.195 35.8496L196.986 33.8086ZM195.814 24.4336L198.109 32.0898L198.51 35.0684L196.596 35.2734L192.797 24.4336H195.814ZM205.287 24.4336H208.1L208.012 27.9688C207.986 29.1016 207.855 30.0749 207.621 30.8887C207.387 31.7025 207.074 32.3861 206.684 32.9395C206.293 33.4928 205.847 33.9355 205.346 34.2676C204.851 34.5931 204.33 34.8372 203.783 35H203.256L203.227 32.832L203.52 32.8027C203.852 32.4577 204.125 32.1224 204.34 31.7969C204.555 31.4648 204.721 31.1165 204.838 30.752C204.955 30.3874 205.04 29.9805 205.092 29.5312C205.15 29.082 205.186 28.5612 205.199 27.9688L205.287 24.4336ZM206.049 24.4336H213.051V35H210.248V26.6895H206.049V24.4336ZM202.611 32.8027H214.564V38.1738H211.752V35H205.492V38.1738H202.611V32.8027ZM223.119 28.7012V30.8887H217.748V28.7012H223.119ZM218.686 24.4336V35H215.873V24.4336H218.686ZM225.023 24.4336V35H222.201V24.4336H225.023ZM230.014 31.0742L233.559 24.4336H236.371V35H233.559V28.3496L230.014 35H227.201V24.4336H230.014V31.0742ZM247.445 24.4336V35H244.623V24.4336H247.445ZM246.117 28.9551V31.1523C245.902 31.263 245.626 31.3672 245.287 31.4648C244.949 31.5625 244.59 31.6406 244.213 31.6992C243.842 31.7513 243.497 31.7773 243.178 31.7773C242.162 31.7773 241.29 31.6374 240.561 31.3574C239.838 31.0775 239.281 30.638 238.891 30.0391C238.5 29.4401 238.305 28.6719 238.305 27.7344V24.4238H241.117V27.7344C241.117 28.2096 241.189 28.584 241.332 28.8574C241.475 29.1243 241.697 29.3132 241.996 29.4238C242.302 29.528 242.696 29.5801 243.178 29.5801C243.516 29.5801 243.845 29.554 244.164 29.502C244.483 29.4499 244.802 29.3783 245.121 29.2871C245.44 29.196 245.772 29.0853 246.117 28.9551ZM254.477 35.1953C253.656 35.1953 252.921 35.0651 252.27 34.8047C251.618 34.5378 251.065 34.1699 250.609 33.7012C250.16 33.2324 249.815 32.6888 249.574 32.0703C249.333 31.4453 249.213 30.7812 249.213 30.0781V29.6875C249.213 28.8867 249.327 28.1543 249.555 27.4902C249.783 26.8262 250.108 26.25 250.531 25.7617C250.961 25.2734 251.482 24.8991 252.094 24.6387C252.706 24.3717 253.396 24.2383 254.164 24.2383C254.913 24.2383 255.577 24.362 256.156 24.6094C256.736 24.8568 257.221 25.2083 257.611 25.6641C258.008 26.1198 258.308 26.6667 258.51 27.3047C258.712 27.9362 258.812 28.6393 258.812 29.4141V30.5859H250.414V28.7109H256.049V28.4961C256.049 28.1055 255.977 27.7572 255.834 27.4512C255.697 27.1387 255.489 26.8913 255.209 26.709C254.929 26.5267 254.571 26.4355 254.135 26.4355C253.764 26.4355 253.445 26.5169 253.178 26.6797C252.911 26.8424 252.693 27.0703 252.523 27.3633C252.361 27.6562 252.237 28.0013 252.152 28.3984C252.074 28.7891 252.035 29.2188 252.035 29.6875V30.0781C252.035 30.5013 252.094 30.8919 252.211 31.25C252.335 31.6081 252.507 31.9173 252.729 32.1777C252.956 32.4382 253.23 32.64 253.549 32.7832C253.874 32.9264 254.242 32.998 254.652 32.998C255.16 32.998 255.632 32.9004 256.068 32.7051C256.511 32.5033 256.892 32.2005 257.211 31.7969L258.578 33.2812C258.357 33.6003 258.054 33.9062 257.67 34.1992C257.292 34.4922 256.837 34.7331 256.303 34.9219C255.769 35.1042 255.16 35.1953 254.477 35.1953ZM264.779 32.998C265.124 32.998 265.43 32.9329 265.697 32.8027C265.964 32.666 266.173 32.4772 266.322 32.2363C266.479 31.9889 266.56 31.6992 266.566 31.3672H269.213C269.206 32.1094 269.008 32.7702 268.617 33.3496C268.227 33.9225 267.702 34.375 267.045 34.707C266.387 35.0326 265.652 35.1953 264.838 35.1953C264.018 35.1953 263.301 35.0586 262.689 34.7852C262.084 34.5117 261.579 34.1341 261.176 33.6523C260.772 33.1641 260.469 32.5977 260.268 31.9531C260.066 31.3021 259.965 30.6055 259.965 29.8633V29.5801C259.965 28.8314 260.066 28.1348 260.268 27.4902C260.469 26.8392 260.772 26.2728 261.176 25.791C261.579 25.3027 262.084 24.9219 262.689 24.6484C263.295 24.375 264.005 24.2383 264.818 24.2383C265.684 24.2383 266.443 24.4043 267.094 24.7363C267.751 25.0684 268.266 25.5436 268.637 26.1621C269.014 26.7741 269.206 27.5 269.213 28.3398H266.566C266.56 27.9883 266.485 27.6693 266.342 27.3828C266.205 27.0964 266.003 26.8685 265.736 26.6992C265.476 26.5234 265.154 26.4355 264.77 26.4355C264.359 26.4355 264.024 26.5234 263.764 26.6992C263.503 26.8685 263.301 27.1029 263.158 27.4023C263.015 27.6953 262.914 28.0306 262.855 28.4082C262.803 28.7793 262.777 29.1699 262.777 29.5801V29.8633C262.777 30.2734 262.803 30.6673 262.855 31.0449C262.908 31.4225 263.005 31.7578 263.148 32.0508C263.298 32.3438 263.503 32.5749 263.764 32.7441C264.024 32.9134 264.363 32.998 264.779 32.998ZM276.225 24.4336V35H273.402V24.4336H276.225ZM279.623 24.4336V26.6113H270.053V24.4336H279.623ZM286.322 30.5859H283.012L282.992 28.7402H285.727C286.091 28.7402 286.387 28.7044 286.615 28.6328C286.843 28.5547 287.009 28.4408 287.113 28.291C287.224 28.1348 287.279 27.946 287.279 27.7246C287.279 27.5293 287.243 27.3633 287.172 27.2266C287.107 27.0833 287.006 26.9661 286.869 26.875C286.732 26.7839 286.56 26.7188 286.352 26.6797C286.15 26.6341 285.912 26.6113 285.639 26.6113H284.057V35H281.244V24.4336H285.639C286.329 24.4336 286.947 24.4954 287.494 24.6191C288.041 24.7363 288.507 24.9154 288.891 25.1562C289.281 25.3971 289.577 25.7031 289.779 26.0742C289.988 26.4388 290.092 26.8717 290.092 27.373C290.092 27.6986 290.017 28.0046 289.867 28.291C289.724 28.5775 289.509 28.8314 289.223 29.0527C288.936 29.2741 288.581 29.4564 288.158 29.5996C287.742 29.7363 287.26 29.821 286.713 29.8535L286.322 30.5859ZM286.322 35H282.318L283.285 32.8223H286.322C286.667 32.8223 286.951 32.7799 287.172 32.6953C287.393 32.6107 287.556 32.487 287.66 32.3242C287.771 32.1549 287.826 31.9531 287.826 31.7188C287.826 31.4909 287.777 31.2923 287.68 31.123C287.582 30.9538 287.423 30.8236 287.201 30.7324C286.986 30.6348 286.693 30.5859 286.322 30.5859H283.695L283.715 28.7402H286.703L287.387 29.4824C288.129 29.528 288.741 29.668 289.223 29.9023C289.704 30.1367 290.059 30.4362 290.287 30.8008C290.521 31.1589 290.639 31.5527 290.639 31.9824C290.639 32.4837 290.544 32.9232 290.355 33.3008C290.167 33.6784 289.887 33.9941 289.516 34.248C289.151 34.4954 288.702 34.6842 288.168 34.8145C287.634 34.9382 287.019 35 286.322 35ZM298.07 32.6172V27.9102C298.07 27.5716 298.015 27.2819 297.904 27.041C297.794 26.7936 297.621 26.6016 297.387 26.4648C297.159 26.3281 296.863 26.2598 296.498 26.2598C296.186 26.2598 295.915 26.3151 295.688 26.4258C295.46 26.5299 295.284 26.6829 295.16 26.8848C295.036 27.0801 294.975 27.3112 294.975 27.5781H292.162C292.162 27.1289 292.266 26.7025 292.475 26.2988C292.683 25.8952 292.986 25.5404 293.383 25.2344C293.78 24.9219 294.252 24.6777 294.799 24.502C295.352 24.3262 295.971 24.2383 296.654 24.2383C297.475 24.2383 298.204 24.375 298.842 24.6484C299.48 24.9219 299.981 25.332 300.346 25.8789C300.717 26.4258 300.902 27.1094 300.902 27.9297V32.4512C300.902 33.0306 300.938 33.5059 301.01 33.877C301.081 34.2415 301.186 34.5605 301.322 34.834V35H298.48C298.344 34.7135 298.24 34.3555 298.168 33.9258C298.103 33.4896 298.07 33.0534 298.07 32.6172ZM298.441 28.5645L298.461 30.1562H296.889C296.518 30.1562 296.195 30.1986 295.922 30.2832C295.648 30.3678 295.424 30.4883 295.248 30.6445C295.072 30.7943 294.942 30.9701 294.857 31.1719C294.779 31.3737 294.74 31.5951 294.74 31.8359C294.74 32.0768 294.796 32.2949 294.906 32.4902C295.017 32.679 295.176 32.8288 295.385 32.9395C295.593 33.0436 295.837 33.0957 296.117 33.0957C296.54 33.0957 296.908 33.0111 297.221 32.8418C297.533 32.6725 297.774 32.4642 297.943 32.2168C298.119 31.9694 298.21 31.735 298.217 31.5137L298.959 32.7051C298.855 32.972 298.712 33.2487 298.529 33.5352C298.354 33.8216 298.129 34.0918 297.855 34.3457C297.582 34.5931 297.253 34.7982 296.869 34.9609C296.485 35.1172 296.029 35.1953 295.502 35.1953C294.831 35.1953 294.223 35.0618 293.676 34.7949C293.135 34.5215 292.706 34.1471 292.387 33.6719C292.074 33.1901 291.918 32.6432 291.918 32.0312C291.918 31.4779 292.022 30.9863 292.23 30.5566C292.439 30.127 292.745 29.7656 293.148 29.4727C293.559 29.1732 294.07 28.9486 294.682 28.7988C295.294 28.6426 296.003 28.5645 296.811 28.5645H298.441Z" fill="#F5EDED"/>
</g>
<g filter="url(#filter3_d_31_9)">
<path d="M341.707 29.7071C342.098 29.3166 342.098 28.6834 341.707 28.2929L335.343 21.9289C334.953 21.5384 334.319 21.5384 333.929 21.9289C333.538 22.3195 333.538 22.9526 333.929 23.3431L339.586 29L333.929 34.6569C333.538 35.0474 333.538 35.6805 333.929 36.0711C334.319 36.4616 334.953 36.4616 335.343 36.0711L341.707 29.7071ZM312 30H341V28H312V30Z" fill="#FCF6F6" fill-opacity="0.76"/>
</g>
</g>
<defs>
<filter id="filter0_d_31_9" x="7.5" y="6.5" width="352" height="53" filterUnits="userSpaceOnUse" color-interpolation-filters="sRGB">
<feFlood flood-opacity="0" result="BackgroundImageFix"/>
<feColorMatrix in="SourceAlpha" type="matrix" values="0 0 0 0 0 0 0 0 0 0 0 0 0 0 0 0 0 0 127 0" result="hardAlpha"/>
<feOffset dx="4" dy="5"/>
<feGaussianBlur stdDeviation="2"/>
<feColorMatrix type="matrix" values="0 0 0 0 0 0 0 0 0 0 0 0 0 0 0 0 0 0 0.27 0"/>
<feBlend mode="normal" in2="BackgroundImageFix" result="effect1_dropShadow_31_9"/>
<feBlend mode="normal" in="SourceGraphic" in2="effect1_dropShadow_31_9" result="shape"/>
</filter>
<filter id="filter1_d_31_9" x="0.5" y="0.5" width="360" height="60" filterUnits="userSpaceOnUse" color-interpolation-filters="sRGB">
<feFlood flood-opacity="0" result="BackgroundImageFix"/>
<feColorMatrix in="SourceAlpha" type="matrix" values="0 0 0 0 0 0 0 0 0 0 0 0 0 0 0 0 0 0 127 0" result="hardAlpha"/>
<feOffset dx="1" dy="2"/>
<feGaussianBlur stdDeviation="4"/>
<feComposite in2="hardAlpha" operator="out"/>
<feColorMatrix type="matrix" values="0 0 0 0 0 0 0 0 0 0 0 0 0 0 0 0 0 0 0.25 0"/>
<feBlend mode="normal" in2="BackgroundImageFix" result="effect1_dropShadow_31_9"/>
<feBlend mode="normal" in="SourceGraphic" in2="effect1_dropShadow_31_9" result="shape"/>
</filter>
<filter id="filter2_d_31_9" x="25.2793" y="14.7812" width="285.043" height="34.4863" filterUnits="userSpaceOnUse" color-interpolation-filters="sRGB">
<feFlood flood-opacity="0" result="BackgroundImageFix"/>
<feColorMatrix in="SourceAlpha" type="matrix" values="0 0 0 0 0 0 0 0 0 0 0 0 0 0 0 0 0 0 127 0" result="hardAlpha"/>
<feOffset dx="1" dy="2"/>
<feGaussianBlur stdDeviation="4"/>
<feComposite in2="hardAlpha" operator="out"/>
<feColorMatrix type="matrix" values="0 0 0 0 0 0 0 0 0 0 0 0 0 0 0 0 0 0 0.25 0"/>
<feBlend mode="normal" in2="BackgroundImageFix" result="effect1_dropShadow_31_9"/>
<feBlend mode="normal" in="SourceGraphic" in2="effect1_dropShadow_31_9" result="shape"/>
</filter>
<filter id="filter3_d_31_9" x="312" y="21.636" width="39" height="22.7279" filterUnits="userSpaceOnUse" color-interpolation-filters="sRGB">
<feFlood flood-opacity="0" result="BackgroundImageFix"/>
<feColorMatrix in="SourceAlpha" type="matrix" values="0 0 0 0 0 0 0 0 0 0 0 0 0 0 0 0 0 0 127 0" result="hardAlpha"/>
<feOffset dx="5" dy="4"/>
<feGaussianBlur stdDeviation="2"/>
<feComposite in2="hardAlpha" operator="out"/>
<feColorMatrix type="matrix" values="0 0 0 0 0 0 0 0 0 0 0 0 0 0 0 0 0 0 0.25 0"/>
<feBlend mode="normal" in2="BackgroundImageFix" result="effect1_dropShadow_31_9"/>
<feBlend mode="normal" in="SourceGraphic" in2="effect1_dropShadow_31_9" result="shape"/>
</filter>
</defs>
</svg>
