<svg width="242" height="46" viewBox="0 0 242 46" fill="none" xmlns="http://www.w3.org/2000/svg">
<g filter="url(#filter0_d_31_15)">
<rect width="233" height="38" rx="10" fill="#353434" fill-opacity="0.66" shape-rendering="crispEdges"/>
<rect x="1" y="1" width="231" height="36" rx="9" stroke="#FAF2F2" stroke-width="2" shape-rendering="crispEdges"/>
</g>
<g filter="url(#filter1_d_31_15)">
<path d="M47.9214 23.8767V26.0476H38.1895V23.8767H47.9214ZM39.0151 23.8767V29.3596H36.3989L36.2505 23.8767H39.0151ZM49.9253 23.8767L49.6841 29.3689H47.1328V23.8767H49.9253ZM46.3906 12.5398V14.72H39.8872V12.5398H46.3906ZM48.376 12.5398V26.0476H45.6021V12.5398H48.376ZM39.5439 12.5398H42.3271L41.9653 18.0413C41.9097 18.9504 41.8107 19.7545 41.6685 20.4534C41.5324 21.1461 41.3654 21.7553 41.1675 22.281C40.9757 22.8067 40.7624 23.2675 40.5273 23.6633C40.2923 24.053 40.0449 24.3931 39.7852 24.6838C39.5254 24.9683 39.2625 25.2219 38.9966 25.4446C38.7306 25.6611 38.4709 25.8621 38.2173 26.0476H36.6216V23.8767H37.2432C37.4225 23.7283 37.6112 23.5242 37.8091 23.2644C38.0132 23.0046 38.2049 22.6552 38.3843 22.2161C38.5698 21.7708 38.7306 21.2079 38.8667 20.5276C39.009 19.8472 39.1141 19.0185 39.1821 18.0413L39.5439 12.5398ZM50.7695 21.1306V20.9358C50.7695 20.1998 50.8747 19.5225 51.085 18.9041C51.2952 18.2794 51.6014 17.7382 52.0034 17.2805C52.4054 16.8228 52.9002 16.4672 53.4878 16.2136C54.0754 15.9539 54.7495 15.824 55.5103 15.824C56.271 15.824 56.9482 15.9539 57.542 16.2136C58.1357 16.4672 58.6336 16.8228 59.0356 17.2805C59.4438 17.7382 59.7531 18.2794 59.9634 18.9041C60.1737 19.5225 60.2788 20.1998 60.2788 20.9358V21.1306C60.2788 21.8604 60.1737 22.5377 59.9634 23.1624C59.7531 23.7808 59.4438 24.322 59.0356 24.7859C58.6336 25.2436 58.1388 25.5992 57.5513 25.8528C56.9637 26.1064 56.2896 26.2332 55.5288 26.2332C54.7681 26.2332 54.0908 26.1064 53.4971 25.8528C52.9095 25.5992 52.4116 25.2436 52.0034 24.7859C51.6014 24.322 51.2952 23.7808 51.085 23.1624C50.8747 22.5377 50.7695 21.8604 50.7695 21.1306ZM53.4414 20.9358V21.1306C53.4414 21.5512 53.4785 21.9439 53.5527 22.3088C53.627 22.6737 53.7445 22.9954 53.9053 23.2737C54.0723 23.5458 54.2887 23.7592 54.5547 23.9138C54.8206 24.0684 55.1453 24.1458 55.5288 24.1458C55.8999 24.1458 56.2184 24.0684 56.4844 23.9138C56.7503 23.7592 56.9637 23.5458 57.1245 23.2737C57.2853 22.9954 57.4028 22.6737 57.4771 22.3088C57.5575 21.9439 57.5977 21.5512 57.5977 21.1306V20.9358C57.5977 20.5276 57.5575 20.1441 57.4771 19.7854C57.4028 19.4205 57.2822 19.0989 57.1152 18.8206C56.9544 18.5361 56.741 18.3134 56.4751 18.1526C56.2091 17.9918 55.8875 17.9114 55.5103 17.9114C55.133 17.9114 54.8114 17.9918 54.5454 18.1526C54.2856 18.3134 54.0723 18.5361 53.9053 18.8206C53.7445 19.0989 53.627 19.4205 53.5527 19.7854C53.4785 20.1441 53.4414 20.5276 53.4414 20.9358ZM64.769 16.0095V26.0476H62.0972V16.0095H64.769ZM71.291 16.0095L66.9678 22.2903H64.2959L63.9712 19.8225H65.7432L67.9048 16.0095H71.291ZM68.0254 26.0476L65.5576 21.8079L67.8862 20.5183L71.6064 26.0476H68.0254ZM75.5864 24.9158L78.249 16.0095H81.1157L77.0801 27.5598C76.9935 27.8134 76.876 28.0855 76.7275 28.3762C76.5853 28.6669 76.3905 28.9421 76.1431 29.2019C75.9019 29.4679 75.5957 29.6843 75.2246 29.8513C74.8597 30.0183 74.4113 30.1018 73.8794 30.1018C73.6258 30.1018 73.4186 30.0863 73.2578 30.0554C73.097 30.0245 72.9053 29.9812 72.6826 29.9255V27.968C72.7507 27.968 72.8218 27.968 72.896 27.968C72.9702 27.9742 73.0413 27.9773 73.1094 27.9773C73.4619 27.9773 73.7495 27.9371 73.9722 27.8567C74.1948 27.7763 74.3742 27.6526 74.5103 27.4856C74.6463 27.3248 74.7546 27.1145 74.835 26.8547L75.5864 24.9158ZM74.4731 16.0095L76.6533 23.283L77.0337 26.1125L75.2153 26.3074L71.6064 16.0095H74.4731ZM88.2871 22.9768L90.9219 16.0095H93.1021L89.187 26.0476H87.3872L83.4907 16.0095H85.6709L88.2871 22.9768ZM85.0308 16.0095V26.0476H82.3589V16.0095H85.0308ZM91.6084 26.0476V16.0095H94.2803V26.0476H91.6084ZM101.238 26.2332C100.459 26.2332 99.7601 26.1095 99.1416 25.8621C98.5231 25.6085 97.9974 25.259 97.5645 24.8137C97.1377 24.3684 96.8099 23.852 96.5811 23.2644C96.3522 22.6707 96.2378 22.0398 96.2378 21.3718V21.0007C96.2378 20.24 96.346 19.5442 96.5625 18.9133C96.779 18.2825 97.0882 17.7351 97.4902 17.2712C97.8984 16.8074 98.3932 16.4517 98.9746 16.2043C99.556 15.9508 100.212 15.824 100.941 15.824C101.653 15.824 102.284 15.9415 102.834 16.1765C103.384 16.4115 103.845 16.7455 104.216 17.1785C104.594 17.6114 104.878 18.1309 105.07 18.7371C105.262 19.337 105.357 20.005 105.357 20.741V21.8542H97.3789V20.073H102.732V19.8689C102.732 19.4978 102.664 19.1669 102.528 18.8762C102.398 18.5793 102.2 18.3443 101.934 18.1711C101.668 17.998 101.328 17.9114 100.914 17.9114C100.561 17.9114 100.258 17.9887 100.004 18.1433C99.7508 18.2979 99.5436 18.5144 99.3828 18.7927C99.2282 19.071 99.1107 19.3988 99.0303 19.7761C98.9561 20.1472 98.9189 20.5554 98.9189 21.0007V21.3718C98.9189 21.7738 98.9746 22.1449 99.0859 22.4851C99.2035 22.8253 99.3674 23.1191 99.5776 23.3665C99.7941 23.6139 100.054 23.8056 100.357 23.9417C100.666 24.0777 101.016 24.1458 101.405 24.1458C101.888 24.1458 102.336 24.053 102.75 23.8674C103.171 23.6757 103.533 23.3881 103.836 23.0046L105.135 24.4148C104.924 24.7179 104.637 25.0085 104.272 25.2869C103.913 25.5652 103.48 25.794 102.973 25.9734C102.466 26.1466 101.888 26.2332 101.238 26.2332ZM113.753 20.0637V22.1418H108.651V20.0637H113.753ZM109.542 16.0095V26.0476H106.87V16.0095H109.542ZM115.562 16.0095V26.0476H112.881V16.0095H115.562ZM122.752 16.0095V26.0476H120.071V16.0095H122.752ZM125.981 16.0095V18.0784H116.889V16.0095H125.981ZM129.191 18.9875H132.104C133.019 18.9875 133.799 19.1391 134.442 19.4421C135.091 19.739 135.586 20.1534 135.926 20.6853C136.273 21.2172 136.446 21.8326 136.446 22.5315C136.446 23.0387 136.347 23.5087 136.149 23.9417C135.957 24.3684 135.676 24.7395 135.305 25.0549C134.934 25.3704 134.479 25.6147 133.941 25.7878C133.403 25.961 132.791 26.0476 132.104 26.0476H127.521V16.0095H130.202V23.9695H132.104C132.506 23.9695 132.828 23.9045 133.069 23.7747C133.316 23.6386 133.496 23.4623 133.607 23.2458C133.724 23.0294 133.783 22.7944 133.783 22.5408C133.783 22.2748 133.724 22.0336 133.607 21.8171C133.496 21.5945 133.316 21.4151 133.069 21.2791C132.828 21.143 132.506 21.075 132.104 21.075H129.191V18.9875ZM140.732 16.0095V26.0476H138.06V16.0095H140.732Z" fill="#F0E8E8"/>
</g>
<g filter="url(#filter2_d_31_15)">
<path d="M194.707 20.6119C195.098 20.2214 195.098 19.5882 194.707 19.1977L188.343 12.8337C187.953 12.4432 187.319 12.4432 186.929 12.8337C186.538 13.2242 186.538 13.8574 186.929 14.2479L192.586 19.9048L186.929 25.5616C186.538 25.9522 186.538 26.5853 186.929 26.9759C187.319 27.3664 187.953 27.3664 188.343 26.9759L194.707 20.6119ZM167 20.9048H194V18.9048H167V20.9048Z" fill="#F5EDED"/>
</g>
<defs>
<filter id="filter0_d_31_15" x="0" y="0" width="242" height="46" filterUnits="userSpaceOnUse" color-interpolation-filters="sRGB">
<feFlood flood-opacity="0" result="BackgroundImageFix"/>
<feColorMatrix in="SourceAlpha" type="matrix" values="0 0 0 0 0 0 0 0 0 0 0 0 0 0 0 0 0 0 127 0" result="hardAlpha"/>
<feOffset dx="5" dy="4"/>
<feGaussianBlur stdDeviation="2"/>
<feComposite in2="hardAlpha" operator="out"/>
<feColorMatrix type="matrix" values="0 0 0 0 0 0 0 0 0 0 0 0 0 0 0 0 0 0 0.25 0"/>
<feBlend mode="normal" in2="BackgroundImageFix" result="effect1_dropShadow_31_15"/>
<feBlend mode="normal" in="SourceGraphic" in2="effect1_dropShadow_31_15" result="shape"/>
</filter>
<filter id="filter1_d_31_15" x="36.2505" y="12.5398" width="113.481" height="25.562" filterUnits="userSpaceOnUse" color-interpolation-filters="sRGB">
<feFlood flood-opacity="0" result="BackgroundImageFix"/>
<feColorMatrix in="SourceAlpha" type="matrix" values="0 0 0 0 0 0 0 0 0 0 0 0 0 0 0 0 0 0 127 0" result="hardAlpha"/>
<feOffset dx="5" dy="4"/>
<feGaussianBlur stdDeviation="2"/>
<feComposite in2="hardAlpha" operator="out"/>
<feColorMatrix type="matrix" values="0 0 0 0 0 0 0 0 0 0 0 0 0 0 0 0 0 0 0.25 0"/>
<feBlend mode="normal" in2="BackgroundImageFix" result="effect1_dropShadow_31_15"/>
<feBlend mode="normal" in="SourceGraphic" in2="effect1_dropShadow_31_15" result="shape"/>
</filter>
<filter id="filter2_d_31_15" x="167" y="12.5408" width="37" height="22.7279" filterUnits="userSpaceOnUse" color-interpolation-filters="sRGB">
<feFlood flood-opacity="0" result="BackgroundImageFix"/>
<feColorMatrix in="SourceAlpha" type="matrix" values="0 0 0 0 0 0 0 0 0 0 0 0 0 0 0 0 0 0 127 0" result="hardAlpha"/>
<feOffset dx="5" dy="4"/>
<feGaussianBlur stdDeviation="2"/>
<feComposite in2="hardAlpha" operator="out"/>
<feColorMatrix type="matrix" values="0 0 0 0 0 0 0 0 0 0 0 0 0 0 0 0 0 0 0.25 0"/>
<feBlend mode="normal" in2="BackgroundImageFix" result="effect1_dropShadow_31_15"/>
<feBlend mode="normal" in="SourceGraphic" in2="effect1_dropShadow_31_15" result="shape"/>
</filter>
</defs>
</svg>
