<svg width="247" height="66" viewBox="0 0 247 66" fill="none" xmlns="http://www.w3.org/2000/svg">
<g filter="url(#filter0_d_31_7)">
<g filter="url(#filter1_d_31_7)">
<rect x="7" y="6" width="231" height="50" rx="10" fill="#B62E7A"/>
<rect x="7.5" y="6.5" width="230" height="49" rx="9.5" stroke="#FCF6F6" stroke-opacity="0.76"/>
</g>
<g filter="url(#filter2_d_31_7)">
<path d="M30.6074 21.7812H33.0879L36.7402 32.2207L40.3926 21.7812H42.873L37.7363 36H35.7441L30.6074 21.7812ZM29.2695 21.7812H31.7402L32.1895 31.957V36H29.2695V21.7812ZM41.7402 21.7812H44.2207V36H41.291V31.957L41.7402 21.7812ZM51.4766 36.1953C50.6562 36.1953 49.9206 36.0651 49.2695 35.8047C48.6185 35.5378 48.0651 35.1699 47.6094 34.7012C47.1602 34.2324 46.8151 33.6888 46.5742 33.0703C46.3333 32.4453 46.2129 31.7812 46.2129 31.0781V30.6875C46.2129 29.8867 46.3268 29.1543 46.5547 28.4902C46.7826 27.8262 47.1081 27.25 47.5312 26.7617C47.9609 26.2734 48.4818 25.8991 49.0938 25.6387C49.7057 25.3717 50.3958 25.2383 51.1641 25.2383C51.9128 25.2383 52.5768 25.362 53.1562 25.6094C53.7357 25.8568 54.2207 26.2083 54.6113 26.6641C55.0085 27.1198 55.3079 27.6667 55.5098 28.3047C55.7116 28.9362 55.8125 29.6393 55.8125 30.4141V31.5859H47.4141V29.7109H53.0488V29.4961C53.0488 29.1055 52.9772 28.7572 52.834 28.4512C52.6973 28.1387 52.4889 27.8913 52.209 27.709C51.929 27.5267 51.571 27.4355 51.1348 27.4355C50.7637 27.4355 50.4447 27.5169 50.1777 27.6797C49.9108 27.8424 49.6927 28.0703 49.5234 28.3633C49.3607 28.6562 49.237 29.0013 49.1523 29.3984C49.0742 29.7891 49.0352 30.2188 49.0352 30.6875V31.0781C49.0352 31.5013 49.0938 31.8919 49.2109 32.25C49.3346 32.6081 49.5072 32.9173 49.7285 33.1777C49.9564 33.4382 50.2298 33.64 50.5488 33.7832C50.8743 33.9264 51.2422 33.998 51.6523 33.998C52.1602 33.998 52.6322 33.9004 53.0684 33.7051C53.5111 33.5033 53.8919 33.2005 54.2109 32.7969L55.5781 34.2812C55.3568 34.6003 55.054 34.9062 54.6699 35.1992C54.2923 35.4922 53.8366 35.7331 53.3027 35.9219C52.7689 36.1042 52.1602 36.1953 51.4766 36.1953ZM60.2266 27.4648V40.0625H57.4141V25.4336H60.0215L60.2266 27.4648ZM66.916 30.5996V30.8047C66.916 31.5729 66.8249 32.2858 66.6426 32.9434C66.4668 33.6009 66.2064 34.1738 65.8613 34.6621C65.5163 35.1439 65.0866 35.5215 64.5723 35.7949C64.0645 36.0618 63.4785 36.1953 62.8145 36.1953C62.1699 36.1953 61.61 36.0651 61.1348 35.8047C60.6595 35.5443 60.2591 35.1797 59.9336 34.7109C59.6146 34.2357 59.3574 33.6855 59.1621 33.0605C58.9668 32.4355 58.8171 31.765 58.7129 31.0488V30.5117C58.8171 29.7435 58.9668 29.0404 59.1621 28.4023C59.3574 27.7578 59.6146 27.2012 59.9336 26.7324C60.2591 26.2572 60.6562 25.8893 61.125 25.6289C61.6003 25.3685 62.1569 25.2383 62.7949 25.2383C63.4655 25.2383 64.0547 25.3652 64.5625 25.6191C65.0768 25.873 65.5065 26.2376 65.8516 26.7129C66.2031 27.1882 66.4668 27.7546 66.6426 28.4121C66.8249 29.0697 66.916 29.7988 66.916 30.5996ZM64.0938 30.8047V30.5996C64.0938 30.1504 64.0547 29.737 63.9766 29.3594C63.9049 28.9753 63.7878 28.64 63.625 28.3535C63.4688 28.0671 63.2604 27.8457 63 27.6895C62.7461 27.5267 62.4368 27.4453 62.0723 27.4453C61.6882 27.4453 61.3594 27.5072 61.0859 27.6309C60.819 27.7546 60.6009 27.9336 60.4316 28.168C60.2624 28.4023 60.1354 28.6823 60.0508 29.0078C59.9661 29.3333 59.9141 29.7012 59.8945 30.1113V31.4688C59.9271 31.9505 60.0182 32.3835 60.168 32.7676C60.3177 33.1452 60.5488 33.4447 60.8613 33.666C61.1738 33.8874 61.584 33.998 62.0918 33.998C62.4629 33.998 62.7754 33.9167 63.0293 33.7539C63.2832 33.5846 63.4883 33.3535 63.6445 33.0605C63.8073 32.7676 63.9212 32.429 63.9863 32.0449C64.0579 31.6608 64.0938 31.2474 64.0938 30.8047ZM68.2148 30.8242V30.6191C68.2148 29.8444 68.3255 29.1315 68.5469 28.4805C68.7682 27.8229 69.0905 27.2533 69.5137 26.7715C69.9368 26.2897 70.4577 25.9154 71.0762 25.6484C71.6947 25.375 72.4043 25.2383 73.2051 25.2383C74.0059 25.2383 74.7188 25.375 75.3438 25.6484C75.9688 25.9154 76.4928 26.2897 76.916 26.7715C77.3457 27.2533 77.6712 27.8229 77.8926 28.4805C78.1139 29.1315 78.2246 29.8444 78.2246 30.6191V30.8242C78.2246 31.5924 78.1139 32.3053 77.8926 32.9629C77.6712 33.6139 77.3457 34.1836 76.916 34.6719C76.4928 35.1536 75.972 35.528 75.3535 35.7949C74.735 36.0618 74.0254 36.1953 73.2246 36.1953C72.4238 36.1953 71.7109 36.0618 71.0859 35.7949C70.4674 35.528 69.9434 35.1536 69.5137 34.6719C69.0905 34.1836 68.7682 33.6139 68.5469 32.9629C68.3255 32.3053 68.2148 31.5924 68.2148 30.8242ZM71.0273 30.6191V30.8242C71.0273 31.2669 71.0664 31.6803 71.1445 32.0645C71.2227 32.4486 71.3464 32.7871 71.5156 33.0801C71.6914 33.3665 71.9193 33.5911 72.1992 33.7539C72.4792 33.9167 72.821 33.998 73.2246 33.998C73.6152 33.998 73.9505 33.9167 74.2305 33.7539C74.5104 33.5911 74.735 33.3665 74.9043 33.0801C75.0736 32.7871 75.1973 32.4486 75.2754 32.0645C75.36 31.6803 75.4023 31.2669 75.4023 30.8242V30.6191C75.4023 30.1895 75.36 29.7858 75.2754 29.4082C75.1973 29.0241 75.0703 28.6855 74.8945 28.3926C74.7253 28.0931 74.5007 27.8587 74.2207 27.6895C73.9408 27.5202 73.6022 27.4355 73.2051 27.4355C72.8079 27.4355 72.4694 27.5202 72.1895 27.6895C71.916 27.8587 71.6914 28.0931 71.5156 28.3926C71.3464 28.6855 71.2227 29.0241 71.1445 29.4082C71.0664 29.7858 71.0273 30.1895 71.0273 30.6191ZM87.0625 25.4336V27.6406H81.9453V25.4336H87.0625ZM82.7559 25.4336V36H79.9434V25.4336H82.7559ZM89.1133 25.4336V36H86.291V25.4336H89.1133ZM94.0938 27.4648V40.0625H91.2812V25.4336H93.8887L94.0938 27.4648ZM100.783 30.5996V30.8047C100.783 31.5729 100.692 32.2858 100.51 32.9434C100.334 33.6009 100.074 34.1738 99.7285 34.6621C99.3835 35.1439 98.9538 35.5215 98.4395 35.7949C97.9316 36.0618 97.3457 36.1953 96.6816 36.1953C96.0371 36.1953 95.4772 36.0651 95.002 35.8047C94.5267 35.5443 94.1263 35.1797 93.8008 34.7109C93.4818 34.2357 93.2246 33.6855 93.0293 33.0605C92.834 32.4355 92.6842 31.765 92.5801 31.0488V30.5117C92.6842 29.7435 92.834 29.0404 93.0293 28.4023C93.2246 27.7578 93.4818 27.2012 93.8008 26.7324C94.1263 26.2572 94.5234 25.8893 94.9922 25.6289C95.4674 25.3685 96.0241 25.2383 96.6621 25.2383C97.3327 25.2383 97.9219 25.3652 98.4297 25.6191C98.944 25.873 99.3737 26.2376 99.7188 26.7129C100.07 27.1882 100.334 27.7546 100.51 28.4121C100.692 29.0697 100.783 29.7988 100.783 30.5996ZM97.9609 30.8047V30.5996C97.9609 30.1504 97.9219 29.737 97.8438 29.3594C97.7721 28.9753 97.6549 28.64 97.4922 28.3535C97.3359 28.0671 97.1276 27.8457 96.8672 27.6895C96.6133 27.5267 96.304 27.4453 95.9395 27.4453C95.5553 27.4453 95.2266 27.5072 94.9531 27.6309C94.6862 27.7546 94.4681 27.9336 94.2988 28.168C94.1296 28.4023 94.0026 28.6823 93.918 29.0078C93.8333 29.3333 93.7812 29.7012 93.7617 30.1113V31.4688C93.7943 31.9505 93.8854 32.3835 94.0352 32.7676C94.1849 33.1452 94.416 33.4447 94.7285 33.666C95.041 33.8874 95.4512 33.998 95.959 33.998C96.3301 33.998 96.6426 33.9167 96.8965 33.7539C97.1504 33.5846 97.3555 33.3535 97.5117 33.0605C97.6745 32.7676 97.7884 32.429 97.8535 32.0449C97.9251 31.6608 97.9609 31.2474 97.9609 30.8047ZM105.334 32.0742L108.879 25.4336H111.691V36H108.879V29.3496L105.334 36H102.521V25.4336H105.334V32.0742ZM116.135 30.7266H118.986L116.047 36H113.205L116.135 30.7266ZM118.029 25.4336H122.668V36H119.855V27.6113H118.029C117.645 27.6113 117.326 27.6829 117.072 27.8262C116.818 27.9629 116.63 28.1419 116.506 28.3633C116.389 28.5781 116.33 28.7995 116.33 29.0273C116.33 29.2487 116.389 29.4635 116.506 29.6719C116.623 29.8802 116.805 30.0527 117.053 30.1895C117.3 30.3262 117.609 30.3945 117.98 30.3945H120.9V32.3086H117.98C117.284 32.3086 116.659 32.224 116.105 32.0547C115.559 31.8854 115.09 31.651 114.699 31.3516C114.315 31.0456 114.019 30.6908 113.811 30.2871C113.609 29.877 113.508 29.4277 113.508 28.9395C113.508 28.4316 113.612 27.9661 113.82 27.543C114.029 27.1198 114.328 26.7487 114.719 26.4297C115.109 26.1107 115.581 25.8665 116.135 25.6973C116.695 25.5215 117.326 25.4336 118.029 25.4336ZM130.432 25.4336V36H127.609V25.4336H130.432ZM133.83 25.4336V27.6113H124.26V25.4336H133.83ZM138.068 32.0742L141.613 25.4336H144.426V36H141.613V29.3496L138.068 36H135.256V25.4336H138.068V32.0742ZM148.869 30.7266H151.721L148.781 36H145.939L148.869 30.7266ZM150.764 25.4336H155.402V36H152.59V27.6113H150.764C150.38 27.6113 150.061 27.6829 149.807 27.8262C149.553 27.9629 149.364 28.1419 149.24 28.3633C149.123 28.5781 149.064 28.7995 149.064 29.0273C149.064 29.2487 149.123 29.4635 149.24 29.6719C149.357 29.8802 149.54 30.0527 149.787 30.1895C150.035 30.3262 150.344 30.3945 150.715 30.3945H153.635V32.3086H150.715C150.018 32.3086 149.393 32.224 148.84 32.0547C148.293 31.8854 147.824 31.651 147.434 31.3516C147.049 31.0456 146.753 30.6908 146.545 30.2871C146.343 29.877 146.242 29.4277 146.242 28.9395C146.242 28.4316 146.346 27.9661 146.555 27.543C146.763 27.1198 147.062 26.7487 147.453 26.4297C147.844 26.1107 148.316 25.8665 148.869 25.6973C149.429 25.5215 150.061 25.4336 150.764 25.4336Z" fill="#EFEFEF"/>
</g>
<g filter="url(#filter3_d_31_7)">
<path d="M205.707 31.7071C206.098 31.3166 206.098 30.6834 205.707 30.2929L199.343 23.9289C198.953 23.5384 198.319 23.5384 197.929 23.9289C197.538 24.3195 197.538 24.9526 197.929 25.3431L203.586 31L197.929 36.6569C197.538 37.0474 197.538 37.6805 197.929 38.0711C198.319 38.4616 198.953 38.4616 199.343 38.0711L205.707 31.7071ZM176 32H205V30H176V32Z" fill="#FCF6F6" fill-opacity="0.76"/>
</g>
</g>
<defs>
<filter id="filter0_d_31_7" x="7" y="6" width="239" height="60" filterUnits="userSpaceOnUse" color-interpolation-filters="sRGB">
<feFlood flood-opacity="0" result="BackgroundImageFix"/>
<feColorMatrix in="SourceAlpha" type="matrix" values="0 0 0 0 0 0 0 0 0 0 0 0 0 0 0 0 0 0 127 0" result="hardAlpha"/>
<feOffset dx="4" dy="6"/>
<feGaussianBlur stdDeviation="2"/>
<feColorMatrix type="matrix" values="0 0 0 0 0 0 0 0 0 0 0 0 0 0 0 0 0 0 0.27 0"/>
<feBlend mode="normal" in2="BackgroundImageFix" result="effect1_dropShadow_31_7"/>
<feBlend mode="normal" in="SourceGraphic" in2="effect1_dropShadow_31_7" result="shape"/>
</filter>
<filter id="filter1_d_31_7" x="0" y="0" width="247" height="66" filterUnits="userSpaceOnUse" color-interpolation-filters="sRGB">
<feFlood flood-opacity="0" result="BackgroundImageFix"/>
<feColorMatrix in="SourceAlpha" type="matrix" values="0 0 0 0 0 0 0 0 0 0 0 0 0 0 0 0 0 0 127 0" result="hardAlpha"/>
<feOffset dx="1" dy="2"/>
<feGaussianBlur stdDeviation="4"/>
<feComposite in2="hardAlpha" operator="out"/>
<feColorMatrix type="matrix" values="0 0 0 0 0 0 0 0 0 0 0 0 0 0 0 0 0 0 0.25 0"/>
<feBlend mode="normal" in2="BackgroundImageFix" result="effect1_dropShadow_31_7"/>
<feBlend mode="normal" in="SourceGraphic" in2="effect1_dropShadow_31_7" result="shape"/>
</filter>
<filter id="filter2_d_31_7" x="28.2695" y="21.7812" width="134.133" height="26.2812" filterUnits="userSpaceOnUse" color-interpolation-filters="sRGB">
<feFlood flood-opacity="0" result="BackgroundImageFix"/>
<feColorMatrix in="SourceAlpha" type="matrix" values="0 0 0 0 0 0 0 0 0 0 0 0 0 0 0 0 0 0 127 0" result="hardAlpha"/>
<feOffset dx="3" dy="4"/>
<feGaussianBlur stdDeviation="2"/>
<feComposite in2="hardAlpha" operator="out"/>
<feColorMatrix type="matrix" values="0 0 0 0 0 0 0 0 0 0 0 0 0 0 0 0 0 0 0.25 0"/>
<feBlend mode="normal" in2="BackgroundImageFix" result="effect1_dropShadow_31_7"/>
<feBlend mode="normal" in="SourceGraphic" in2="effect1_dropShadow_31_7" result="shape"/>
</filter>
<filter id="filter3_d_31_7" x="176" y="23.636" width="39" height="22.7279" filterUnits="userSpaceOnUse" color-interpolation-filters="sRGB">
<feFlood flood-opacity="0" result="BackgroundImageFix"/>
<feColorMatrix in="SourceAlpha" type="matrix" values="0 0 0 0 0 0 0 0 0 0 0 0 0 0 0 0 0 0 127 0" result="hardAlpha"/>
<feOffset dx="5" dy="4"/>
<feGaussianBlur stdDeviation="2"/>
<feComposite in2="hardAlpha" operator="out"/>
<feColorMatrix type="matrix" values="0 0 0 0 0 0 0 0 0 0 0 0 0 0 0 0 0 0 0.25 0"/>
<feBlend mode="normal" in2="BackgroundImageFix" result="effect1_dropShadow_31_7"/>
<feBlend mode="normal" in="SourceGraphic" in2="effect1_dropShadow_31_7" result="shape"/>
</filter>
</defs>
</svg>
