<svg width="244" height="48" viewBox="0 0 244 48" fill="none" xmlns="http://www.w3.org/2000/svg">
<g filter="url(#filter0_d_31_14)">
<rect x="1" y="1" width="233" height="38" rx="10" fill="#353434" fill-opacity="0.66" shape-rendering="crispEdges"/>
<rect x="1" y="1" width="233" height="38" rx="10" stroke="#F0E8E8" stroke-width="2" shape-rendering="crispEdges"/>
</g>
<g filter="url(#filter1_d_31_14)">
<path d="M42.4458 22.1016L45.7671 13.4922H48.7637L44.1343 24.3838C43.9735 24.7549 43.7879 25.1105 43.5776 25.4507C43.3735 25.7847 43.1292 26.0846 42.8447 26.3506C42.5602 26.6104 42.2201 26.8175 41.8242 26.9722C41.4284 27.1206 40.9552 27.1948 40.4048 27.1948C40.2687 27.1948 40.1017 27.1917 39.9038 27.1855C39.7059 27.1794 39.5482 27.1701 39.4307 27.1577L39.4121 24.9868C39.4863 25.0054 39.6038 25.0177 39.7646 25.0239C39.9255 25.0239 40.043 25.0239 40.1172 25.0239C40.4821 25.0239 40.7697 24.9714 40.98 24.8662C41.1903 24.7611 41.3573 24.6126 41.481 24.4209C41.6108 24.223 41.7253 23.991 41.8242 23.7251L42.4458 22.1016ZM40.2471 13.4922L43.3271 20.1812L44.1899 23.252L42.1211 23.2891L37.2598 13.4922H40.2471ZM58.2822 16.9619V27H55.6011V16.9619H58.2822ZM57.0205 21.2573V23.3447C56.8164 23.4499 56.5535 23.5488 56.2319 23.6416C55.9103 23.7344 55.5701 23.8086 55.2114 23.8643C54.8589 23.9137 54.5311 23.9385 54.228 23.9385C53.2632 23.9385 52.4344 23.8055 51.7417 23.5396C51.0552 23.2736 50.5264 22.8561 50.1553 22.2871C49.7842 21.7181 49.5986 20.9883 49.5986 20.0977V16.9526H52.2705V20.0977C52.2705 20.5492 52.3385 20.9048 52.4746 21.1646C52.6107 21.4181 52.821 21.5975 53.1055 21.7026C53.3962 21.8016 53.7703 21.8511 54.228 21.8511C54.5496 21.8511 54.862 21.8263 55.165 21.7769C55.4681 21.7274 55.7712 21.6593 56.0742 21.5728C56.3773 21.4862 56.6927 21.381 57.0205 21.2573ZM63.0137 18.8916V30.8594H60.3418V16.9619H62.8188L63.0137 18.8916ZM69.3687 21.8696V22.0645C69.3687 22.7943 69.2821 23.4715 69.1089 24.0962C68.9419 24.7209 68.6945 25.2651 68.3667 25.729C68.0389 26.1867 67.6307 26.5454 67.1421 26.8052C66.6597 27.0588 66.103 27.1855 65.4722 27.1855C64.8599 27.1855 64.328 27.0618 63.8765 26.8145C63.425 26.5671 63.0446 26.2207 62.7354 25.7754C62.4323 25.3239 62.188 24.8013 62.0024 24.2075C61.8169 23.6138 61.6746 22.9767 61.5757 22.2964V21.7861C61.6746 21.0563 61.8169 20.3883 62.0024 19.7822C62.188 19.1699 62.4323 18.6411 62.7354 18.1958C63.0446 17.7443 63.4219 17.3949 63.8672 17.1475C64.3187 16.9001 64.8475 16.7764 65.4536 16.7764C66.0907 16.7764 66.6504 16.897 67.1328 17.1382C67.6214 17.3794 68.0296 17.7257 68.3574 18.1772C68.6914 18.6287 68.9419 19.1668 69.1089 19.7915C69.2821 20.4162 69.3687 21.1089 69.3687 21.8696ZM66.6875 22.0645V21.8696C66.6875 21.4429 66.6504 21.0501 66.5762 20.6914C66.5081 20.3265 66.3968 20.008 66.2422 19.7358C66.0938 19.4637 65.8958 19.2534 65.6484 19.105C65.4072 18.9504 65.1134 18.873 64.7671 18.873C64.4022 18.873 64.0898 18.9318 63.8301 19.0493C63.5765 19.1668 63.3693 19.3369 63.2085 19.5596C63.0477 19.7822 62.9271 20.0482 62.8467 20.3574C62.7663 20.6667 62.7168 21.0161 62.6982 21.4058V22.6953C62.7292 23.153 62.8158 23.5643 62.958 23.9292C63.1003 24.2879 63.3198 24.5724 63.6167 24.7827C63.9136 24.993 64.3032 25.0981 64.7856 25.0981C65.1382 25.0981 65.4351 25.0208 65.6763 24.8662C65.9175 24.7054 66.1123 24.4858 66.2607 24.2075C66.4154 23.9292 66.5236 23.6076 66.5854 23.2427C66.6535 22.8778 66.6875 22.485 66.6875 22.0645ZM75.6494 27.1855C74.8701 27.1855 74.1712 27.0618 73.5527 26.8145C72.9342 26.5609 72.4085 26.2114 71.9756 25.7661C71.5488 25.3208 71.221 24.8044 70.9922 24.2168C70.7633 23.623 70.6489 22.9922 70.6489 22.3242V21.9531C70.6489 21.1924 70.7572 20.4966 70.9736 19.8657C71.1901 19.2349 71.4993 18.6875 71.9014 18.2236C72.3096 17.7598 72.8044 17.4041 73.3857 17.1567C73.9671 16.9032 74.6227 16.7764 75.3525 16.7764C76.0638 16.7764 76.6947 16.8939 77.2451 17.1289C77.7956 17.3639 78.2563 17.6979 78.6274 18.1309C79.0047 18.5638 79.2892 19.0833 79.481 19.6895C79.6727 20.2894 79.7686 20.9574 79.7686 21.6934V22.8066H71.79V21.0254H77.1431V20.8213C77.1431 20.4502 77.075 20.1193 76.939 19.8286C76.8091 19.5317 76.6112 19.2967 76.3452 19.1235C76.0793 18.9504 75.7391 18.8638 75.3247 18.8638C74.9722 18.8638 74.6691 18.9411 74.4155 19.0957C74.1619 19.2503 73.9548 19.4668 73.7939 19.7451C73.6393 20.0234 73.5218 20.3512 73.4414 20.7285C73.3672 21.0996 73.3301 21.5078 73.3301 21.9531V22.3242C73.3301 22.7262 73.3857 23.0973 73.4971 23.4375C73.6146 23.7777 73.7785 24.0715 73.9888 24.3188C74.2052 24.5662 74.465 24.758 74.7681 24.894C75.0773 25.0301 75.4268 25.0981 75.8164 25.0981C76.2988 25.0981 76.7472 25.0054 77.1616 24.8198C77.5822 24.6281 77.944 24.3405 78.2471 23.957L79.5459 25.3672C79.3356 25.6702 79.048 25.9609 78.6831 26.2393C78.3244 26.5176 77.8914 26.7464 77.3843 26.9258C76.8771 27.099 76.2988 27.1855 75.6494 27.1855ZM83.0991 16.9619H85.771L85.6875 20.3203C85.6628 21.3965 85.5391 22.3211 85.3164 23.0942C85.0938 23.8674 84.7969 24.5168 84.4258 25.0425C84.0547 25.5682 83.631 25.9888 83.1548 26.3042C82.6847 26.6134 82.1899 26.8454 81.6704 27H81.1694L81.1416 24.9404L81.4199 24.9126C81.7354 24.5848 81.9951 24.2663 82.1992 23.957C82.4033 23.6416 82.561 23.3107 82.6724 22.9644C82.7837 22.618 82.8641 22.2314 82.9136 21.8047C82.9692 21.3779 83.0033 20.8831 83.0156 20.3203L83.0991 16.9619ZM83.8228 16.9619H90.4746V27H87.812V19.105H83.8228V16.9619ZM80.5571 24.9126H91.9126V30.0151H89.2407V27H83.2939V30.0151H80.5571V24.9126ZM95.8276 23.2705L99.1953 16.9619H101.867V27H99.1953V20.6821L95.8276 27H93.1558V16.9619H95.8276V23.2705ZM109.039 16.9619V27H106.357V16.9619H109.039ZM112.267 16.9619V19.0308H103.175V16.9619H112.267ZM117.602 27.1855C116.822 27.1855 116.123 27.0618 115.505 26.8145C114.886 26.5609 114.361 26.2114 113.928 25.7661C113.501 25.3208 113.173 24.8044 112.944 24.2168C112.715 23.623 112.601 22.9922 112.601 22.3242V21.9531C112.601 21.1924 112.709 20.4966 112.926 19.8657C113.142 19.2349 113.451 18.6875 113.854 18.2236C114.262 17.7598 114.757 17.4041 115.338 17.1567C115.919 16.9032 116.575 16.7764 117.305 16.7764C118.016 16.7764 118.647 16.8939 119.197 17.1289C119.748 17.3639 120.208 17.6979 120.58 18.1309C120.957 18.5638 121.241 19.0833 121.433 19.6895C121.625 20.2894 121.721 20.9574 121.721 21.6934V22.8066H113.742V21.0254H119.095V20.8213C119.095 20.4502 119.027 20.1193 118.891 19.8286C118.761 19.5317 118.563 19.2967 118.297 19.1235C118.031 18.9504 117.691 18.8638 117.277 18.8638C116.924 18.8638 116.621 18.9411 116.368 19.0957C116.114 19.2503 115.907 19.4668 115.746 19.7451C115.591 20.0234 115.474 20.3512 115.394 20.7285C115.319 21.0996 115.282 21.5078 115.282 21.9531V22.3242C115.282 22.7262 115.338 23.0973 115.449 23.4375C115.567 23.7777 115.731 24.0715 115.941 24.3188C116.157 24.5662 116.417 24.758 116.72 24.894C117.029 25.0301 117.379 25.0981 117.769 25.0981C118.251 25.0981 118.699 25.0054 119.114 24.8198C119.534 24.6281 119.896 24.3405 120.199 23.957L121.498 25.3672C121.288 25.6702 121 25.9609 120.635 26.2393C120.277 26.5176 119.844 26.7464 119.336 26.9258C118.829 27.099 118.251 27.1855 117.602 27.1855ZM129.996 16.9619V19.0586H125.061V16.9619H129.996ZM131.954 16.9619V27H129.282V16.9619H131.954ZM124.393 16.9619H127.018L126.749 22.0273C126.712 22.751 126.635 23.388 126.517 23.9385C126.4 24.4889 126.242 24.959 126.044 25.3486C125.852 25.7383 125.62 26.0568 125.348 26.3042C125.082 26.5454 124.77 26.7217 124.411 26.833C124.059 26.9443 123.669 27 123.242 27H122.426L122.398 24.894L122.741 24.8569C122.939 24.8384 123.112 24.7827 123.261 24.6899C123.415 24.591 123.545 24.4518 123.65 24.2725C123.762 24.0869 123.854 23.855 123.929 23.5767C124.003 23.2922 124.062 22.9582 124.105 22.5747C124.154 22.1912 124.188 21.749 124.207 21.248L124.393 16.9619ZM136.685 23.2705L140.053 16.9619H142.725V27H140.053V20.6821L136.685 27H134.013V16.9619H136.685V23.2705Z" fill="#F5EDED"/>
</g>
<g filter="url(#filter2_d_31_14)">
<path d="M200.707 22.7071C201.098 22.3166 201.098 21.6834 200.707 21.2929L194.343 14.9289C193.953 14.5384 193.319 14.5384 192.929 14.9289C192.538 15.3195 192.538 15.9526 192.929 16.3431L198.586 22L192.929 27.6569C192.538 28.0474 192.538 28.6805 192.929 29.0711C193.319 29.4616 193.953 29.4616 194.343 29.0711L200.707 22.7071ZM171.915 23H200V21H171.915V23Z" fill="#FAF2F2"/>
</g>
<defs>
<filter id="filter0_d_31_14" x="0" y="0" width="244" height="48" filterUnits="userSpaceOnUse" color-interpolation-filters="sRGB">
<feFlood flood-opacity="0" result="BackgroundImageFix"/>
<feColorMatrix in="SourceAlpha" type="matrix" values="0 0 0 0 0 0 0 0 0 0 0 0 0 0 0 0 0 0 127 0" result="hardAlpha"/>
<feOffset dx="5" dy="4"/>
<feGaussianBlur stdDeviation="2"/>
<feComposite in2="hardAlpha" operator="out"/>
<feColorMatrix type="matrix" values="0 0 0 0 0 0 0 0 0 0 0 0 0 0 0 0 0 0 0.25 0"/>
<feBlend mode="normal" in2="BackgroundImageFix" result="effect1_dropShadow_31_14"/>
<feBlend mode="normal" in="SourceGraphic" in2="effect1_dropShadow_31_14" result="shape"/>
</filter>
<filter id="filter1_d_31_14" x="37.2598" y="13.4922" width="114.465" height="25.3672" filterUnits="userSpaceOnUse" color-interpolation-filters="sRGB">
<feFlood flood-opacity="0" result="BackgroundImageFix"/>
<feColorMatrix in="SourceAlpha" type="matrix" values="0 0 0 0 0 0 0 0 0 0 0 0 0 0 0 0 0 0 127 0" result="hardAlpha"/>
<feOffset dx="5" dy="4"/>
<feGaussianBlur stdDeviation="2"/>
<feComposite in2="hardAlpha" operator="out"/>
<feColorMatrix type="matrix" values="0 0 0 0 0 0 0 0 0 0 0 0 0 0 0 0 0 0 0.25 0"/>
<feBlend mode="normal" in2="BackgroundImageFix" result="effect1_dropShadow_31_14"/>
<feBlend mode="normal" in="SourceGraphic" in2="effect1_dropShadow_31_14" result="shape"/>
</filter>
<filter id="filter2_d_31_14" x="171.915" y="14.636" width="38.0848" height="22.7279" filterUnits="userSpaceOnUse" color-interpolation-filters="sRGB">
<feFlood flood-opacity="0" result="BackgroundImageFix"/>
<feColorMatrix in="SourceAlpha" type="matrix" values="0 0 0 0 0 0 0 0 0 0 0 0 0 0 0 0 0 0 127 0" result="hardAlpha"/>
<feOffset dx="5" dy="4"/>
<feGaussianBlur stdDeviation="2"/>
<feComposite in2="hardAlpha" operator="out"/>
<feColorMatrix type="matrix" values="0 0 0 0 0 0 0 0 0 0 0 0 0 0 0 0 0 0 0.25 0"/>
<feBlend mode="normal" in2="BackgroundImageFix" result="effect1_dropShadow_31_14"/>
<feBlend mode="normal" in="SourceGraphic" in2="effect1_dropShadow_31_14" result="shape"/>
</filter>
</defs>
</svg>
