<svg width="109" height="31" viewBox="0 0 109 31" fill="none" xmlns="http://www.w3.org/2000/svg">
<g filter="url(#filter0_d_436_6)">
<rect x="4" width="101" height="23" rx="11.5" fill="#FBC900"/>
<rect x="4.5" y="0.5" width="100" height="22" rx="11" stroke="black" stroke-opacity="0.15"/>
</g>
<g filter="url(#filter1_d_436_6)">
<path d="M39.5059 7.46875V16H38.3809V8.39453H34.1738V16H33.043V7.46875H39.5059ZM41.1055 12.9004V12.7656C41.1055 12.3086 41.1719 11.8848 41.3047 11.4941C41.4375 11.0996 41.6289 10.7578 41.8789 10.4688C42.1289 10.1758 42.4316 9.94922 42.7871 9.78906C43.1426 9.625 43.541 9.54297 43.9824 9.54297C44.4277 9.54297 44.8281 9.625 45.1836 9.78906C45.543 9.94922 45.8477 10.1758 46.0977 10.4688C46.3516 10.7578 46.5449 11.0996 46.6777 11.4941C46.8105 11.8848 46.877 12.3086 46.877 12.7656V12.9004C46.877 13.3574 46.8105 13.7812 46.6777 14.1719C46.5449 14.5625 46.3516 14.9043 46.0977 15.1973C45.8477 15.4863 45.5449 15.7129 45.1895 15.877C44.8379 16.0371 44.4395 16.1172 43.9941 16.1172C43.5488 16.1172 43.1484 16.0371 42.793 15.877C42.4375 15.7129 42.1328 15.4863 41.8789 15.1973C41.6289 14.9043 41.4375 14.5625 41.3047 14.1719C41.1719 13.7812 41.1055 13.3574 41.1055 12.9004ZM42.1895 12.7656V12.9004C42.1895 13.2168 42.2266 13.5156 42.3008 13.7969C42.375 14.0742 42.4863 14.3203 42.6348 14.5352C42.7871 14.75 42.9766 14.9199 43.2031 15.0449C43.4297 15.166 43.6934 15.2266 43.9941 15.2266C44.291 15.2266 44.5508 15.166 44.7734 15.0449C45 14.9199 45.1875 14.75 45.3359 14.5352C45.4844 14.3203 45.5957 14.0742 45.6699 13.7969C45.748 13.5156 45.7871 13.2168 45.7871 12.9004V12.7656C45.7871 12.4531 45.748 12.1582 45.6699 11.8809C45.5957 11.5996 45.4824 11.3516 45.3301 11.1367C45.1816 10.918 44.9941 10.7461 44.7676 10.6211C44.5449 10.4961 44.2832 10.4336 43.9824 10.4336C43.6855 10.4336 43.4238 10.4961 43.1973 10.6211C42.9746 10.7461 42.7871 10.918 42.6348 11.1367C42.4863 11.3516 42.375 11.5996 42.3008 11.8809C42.2266 12.1582 42.1895 12.4531 42.1895 12.7656ZM51.8809 14.5586L54.0371 9.66016H55.0801L52.2559 16H51.5059L48.6934 9.66016H49.7363L51.8809 14.5586ZM49.4199 9.66016V16H48.3359V9.66016H49.4199ZM54.3066 16V9.66016H55.3965V16H54.3066ZM56.8555 12.9004V12.7656C56.8555 12.3086 56.9219 11.8848 57.0547 11.4941C57.1875 11.0996 57.3789 10.7578 57.6289 10.4688C57.8789 10.1758 58.1816 9.94922 58.5371 9.78906C58.8926 9.625 59.291 9.54297 59.7324 9.54297C60.1777 9.54297 60.5781 9.625 60.9336 9.78906C61.293 9.94922 61.5977 10.1758 61.8477 10.4688C62.1016 10.7578 62.2949 11.0996 62.4277 11.4941C62.5605 11.8848 62.627 12.3086 62.627 12.7656V12.9004C62.627 13.3574 62.5605 13.7812 62.4277 14.1719C62.2949 14.5625 62.1016 14.9043 61.8477 15.1973C61.5977 15.4863 61.2949 15.7129 60.9395 15.877C60.5879 16.0371 60.1895 16.1172 59.7441 16.1172C59.2988 16.1172 58.8984 16.0371 58.543 15.877C58.1875 15.7129 57.8828 15.4863 57.6289 15.1973C57.3789 14.9043 57.1875 14.5625 57.0547 14.1719C56.9219 13.7812 56.8555 13.3574 56.8555 12.9004ZM57.9395 12.7656V12.9004C57.9395 13.2168 57.9766 13.5156 58.0508 13.7969C58.125 14.0742 58.2363 14.3203 58.3848 14.5352C58.5371 14.75 58.7266 14.9199 58.9531 15.0449C59.1797 15.166 59.4434 15.2266 59.7441 15.2266C60.041 15.2266 60.3008 15.166 60.5234 15.0449C60.75 14.9199 60.9375 14.75 61.0859 14.5352C61.2344 14.3203 61.3457 14.0742 61.4199 13.7969C61.498 13.5156 61.5371 13.2168 61.5371 12.9004V12.7656C61.5371 12.4531 61.498 12.1582 61.4199 11.8809C61.3457 11.5996 61.2324 11.3516 61.0801 11.1367C60.9316 10.918 60.7441 10.7461 60.5176 10.6211C60.2949 10.4961 60.0332 10.4336 59.7324 10.4336C59.4355 10.4336 59.1738 10.4961 58.9473 10.6211C58.7246 10.7461 58.5371 10.918 58.3848 11.1367C58.2363 11.3516 58.125 11.5996 58.0508 11.8809C57.9766 12.1582 57.9395 12.4531 57.9395 12.7656ZM68.7676 9.66016V16H67.6836V9.66016H68.7676ZM68.3984 12.5723V13.4629C68.1797 13.5449 67.957 13.6191 67.7305 13.6855C67.5078 13.748 67.2715 13.7988 67.0215 13.8379C66.7754 13.873 66.5078 13.8906 66.2188 13.8906C65.7188 13.8906 65.2852 13.8047 64.918 13.6328C64.5508 13.457 64.2676 13.1934 64.0684 12.8418C63.8691 12.4863 63.7695 12.0391 63.7695 11.5V9.64844H64.8535V11.5C64.8535 11.8516 64.9062 12.1367 65.0117 12.3555C65.1172 12.5742 65.2715 12.7363 65.4746 12.8418C65.6777 12.9434 65.9258 12.9941 66.2188 12.9941C66.5 12.9941 66.7637 12.9766 67.0098 12.9414C67.2598 12.9023 67.498 12.8516 67.7246 12.7891C67.9551 12.7266 68.1797 12.6543 68.3984 12.5723ZM71.4043 11.8398H73.3086C73.8203 11.8398 74.252 11.9297 74.6035 12.1094C74.9551 12.2852 75.2207 12.5293 75.4004 12.8418C75.584 13.1504 75.6758 13.502 75.6758 13.8965C75.6758 14.1895 75.625 14.4648 75.5234 14.7227C75.4219 14.9766 75.2695 15.1992 75.0664 15.3906C74.8672 15.582 74.6191 15.7324 74.3223 15.8418C74.0293 15.9473 73.6914 16 73.3086 16H70.6133V9.66016H71.6973V15.1094H73.3086C73.6211 15.1094 73.8711 15.0527 74.0586 14.9395C74.2461 14.8262 74.3809 14.6797 74.4629 14.5C74.5449 14.3203 74.5859 14.1328 74.5859 13.9375C74.5859 13.7461 74.5449 13.5586 74.4629 13.375C74.3809 13.1914 74.2461 13.0391 74.0586 12.918C73.8711 12.793 73.6211 12.7305 73.3086 12.7305H71.4043V11.8398Z" fill="black"/>
</g>
<defs>
<filter id="filter0_d_436_6" x="0" y="0" width="109" height="31" filterUnits="userSpaceOnUse" color-interpolation-filters="sRGB">
<feFlood flood-opacity="0" result="BackgroundImageFix"/>
<feColorMatrix in="SourceAlpha" type="matrix" values="0 0 0 0 0 0 0 0 0 0 0 0 0 0 0 0 0 0 127 0" result="hardAlpha"/>
<feOffset dy="4"/>
<feGaussianBlur stdDeviation="2"/>
<feComposite in2="hardAlpha" operator="out"/>
<feColorMatrix type="matrix" values="0 0 0 0 0 0 0 0 0 0 0 0 0 0 0 0 0 0 0.25 0"/>
<feBlend mode="normal" in2="BackgroundImageFix" result="effect1_dropShadow_436_6"/>
<feBlend mode="normal" in="SourceGraphic" in2="effect1_dropShadow_436_6" result="shape"/>
</filter>
<filter id="filter1_d_436_6" x="29.043" y="7.46875" width="50.6328" height="16.6484" filterUnits="userSpaceOnUse" color-interpolation-filters="sRGB">
<feFlood flood-opacity="0" result="BackgroundImageFix"/>
<feColorMatrix in="SourceAlpha" type="matrix" values="0 0 0 0 0 0 0 0 0 0 0 0 0 0 0 0 0 0 127 0" result="hardAlpha"/>
<feOffset dy="4"/>
<feGaussianBlur stdDeviation="2"/>
<feComposite in2="hardAlpha" operator="out"/>
<feColorMatrix type="matrix" values="0 0 0 0 0 0 0 0 0 0 0 0 0 0 0 0 0 0 0.25 0"/>
<feBlend mode="normal" in2="BackgroundImageFix" result="effect1_dropShadow_436_6"/>
<feBlend mode="normal" in="SourceGraphic" in2="effect1_dropShadow_436_6" result="shape"/>
</filter>
</defs>
</svg>
