<svg width="109" height="31" viewBox="0 0 109 31" fill="none" xmlns="http://www.w3.org/2000/svg">
<g filter="url(#filter0_d_436_2)">
<rect x="4" width="101" height="23" rx="11.5" fill="#FBC900"/>
<rect x="4.5" y="0.5" width="100" height="22" rx="11" stroke="black" stroke-opacity="0.15"/>
</g>
<g filter="url(#filter1_d_436_2)">
<path d="M36.5625 10.1367V11.0566H31.9453V10.1367H36.5625ZM32.1211 6.46875V15H30.9902V6.46875H32.1211ZM37.5469 6.46875V15H36.4219V6.46875H37.5469ZM39.1055 11.9004V11.7656C39.1055 11.3086 39.1719 10.8848 39.3047 10.4941C39.4375 10.0996 39.6289 9.75781 39.8789 9.46875C40.1289 9.17578 40.4316 8.94922 40.7871 8.78906C41.1426 8.625 41.541 8.54297 41.9824 8.54297C42.4277 8.54297 42.8281 8.625 43.1836 8.78906C43.543 8.94922 43.8477 9.17578 44.0977 9.46875C44.3516 9.75781 44.5449 10.0996 44.6777 10.4941C44.8105 10.8848 44.877 11.3086 44.877 11.7656V11.9004C44.877 12.3574 44.8105 12.7812 44.6777 13.1719C44.5449 13.5625 44.3516 13.9043 44.0977 14.1973C43.8477 14.4863 43.5449 14.7129 43.1895 14.877C42.8379 15.0371 42.4395 15.1172 41.9941 15.1172C41.5488 15.1172 41.1484 15.0371 40.793 14.877C40.4375 14.7129 40.1328 14.4863 39.8789 14.1973C39.6289 13.9043 39.4375 13.5625 39.3047 13.1719C39.1719 12.7812 39.1055 12.3574 39.1055 11.9004ZM40.1895 11.7656V11.9004C40.1895 12.2168 40.2266 12.5156 40.3008 12.7969C40.375 13.0742 40.4863 13.3203 40.6348 13.5352C40.7871 13.75 40.9766 13.9199 41.2031 14.0449C41.4297 14.166 41.6934 14.2266 41.9941 14.2266C42.291 14.2266 42.5508 14.166 42.7734 14.0449C43 13.9199 43.1875 13.75 43.3359 13.5352C43.4844 13.3203 43.5957 13.0742 43.6699 12.7969C43.748 12.5156 43.7871 12.2168 43.7871 11.9004V11.7656C43.7871 11.4531 43.748 11.1582 43.6699 10.8809C43.5957 10.5996 43.4824 10.3516 43.3301 10.1367C43.1816 9.91797 42.9941 9.74609 42.7676 9.62109C42.5449 9.49609 42.2832 9.43359 41.9824 9.43359C41.6855 9.43359 41.4238 9.49609 41.1973 9.62109C40.9746 9.74609 40.7871 9.91797 40.6348 10.1367C40.4863 10.3516 40.375 10.5996 40.3008 10.8809C40.2266 11.1582 40.1895 11.4531 40.1895 11.7656ZM49.2129 12.2109H47.1328L47.1211 11.3438H48.8203C49.1562 11.3438 49.4355 11.3105 49.6582 11.2441C49.8848 11.1777 50.0547 11.0781 50.168 10.9453C50.2812 10.8125 50.3379 10.6484 50.3379 10.4531C50.3379 10.3008 50.3047 10.168 50.2383 10.0547C50.1758 9.9375 50.0801 9.8418 49.9512 9.76758C49.8223 9.68945 49.6621 9.63281 49.4707 9.59766C49.2832 9.55859 49.0625 9.53906 48.8086 9.53906H47.4199V15H46.3359V8.66016H48.8086C49.2109 8.66016 49.5723 8.69531 49.8926 8.76562C50.2168 8.83594 50.4922 8.94336 50.7188 9.08789C50.9492 9.22852 51.125 9.4082 51.2461 9.62695C51.3672 9.8457 51.4277 10.1035 51.4277 10.4004C51.4277 10.5918 51.3887 10.7734 51.3105 10.9453C51.2324 11.1172 51.1172 11.2695 50.9648 11.4023C50.8125 11.5352 50.625 11.6445 50.4023 11.7305C50.1797 11.8125 49.9238 11.8652 49.6348 11.8887L49.2129 12.2109ZM49.2129 15H46.7402L47.2793 14.1211H49.2129C49.5137 14.1211 49.7637 14.084 49.9629 14.0098C50.1621 13.9316 50.3105 13.8223 50.4082 13.6816C50.5098 13.5371 50.5605 13.3652 50.5605 13.166C50.5605 12.9668 50.5098 12.7969 50.4082 12.6562C50.3105 12.5117 50.1621 12.4023 49.9629 12.3281C49.7637 12.25 49.5137 12.2109 49.2129 12.2109H47.5664L47.5781 11.3438H49.6348L50.0273 11.6719C50.375 11.6992 50.6699 11.7852 50.9121 11.9297C51.1543 12.0742 51.3379 12.2578 51.4629 12.4805C51.5879 12.6992 51.6504 12.9375 51.6504 13.1953C51.6504 13.4922 51.5938 13.7539 51.4805 13.9805C51.3711 14.207 51.2109 14.3965 51 14.5488C50.7891 14.6973 50.5332 14.8105 50.2324 14.8887C49.9316 14.9629 49.5918 15 49.2129 15ZM52.8164 11.9004V11.7656C52.8164 11.3086 52.8828 10.8848 53.0156 10.4941C53.1484 10.0996 53.3398 9.75781 53.5898 9.46875C53.8398 9.17578 54.1426 8.94922 54.498 8.78906C54.8535 8.625 55.252 8.54297 55.6934 8.54297C56.1387 8.54297 56.5391 8.625 56.8945 8.78906C57.2539 8.94922 57.5586 9.17578 57.8086 9.46875C58.0625 9.75781 58.2559 10.0996 58.3887 10.4941C58.5215 10.8848 58.5879 11.3086 58.5879 11.7656V11.9004C58.5879 12.3574 58.5215 12.7812 58.3887 13.1719C58.2559 13.5625 58.0625 13.9043 57.8086 14.1973C57.5586 14.4863 57.2559 14.7129 56.9004 14.877C56.5488 15.0371 56.1504 15.1172 55.7051 15.1172C55.2598 15.1172 54.8594 15.0371 54.5039 14.877C54.1484 14.7129 53.8438 14.4863 53.5898 14.1973C53.3398 13.9043 53.1484 13.5625 53.0156 13.1719C52.8828 12.7812 52.8164 12.3574 52.8164 11.9004ZM53.9004 11.7656V11.9004C53.9004 12.2168 53.9375 12.5156 54.0117 12.7969C54.0859 13.0742 54.1973 13.3203 54.3457 13.5352C54.498 13.75 54.6875 13.9199 54.9141 14.0449C55.1406 14.166 55.4043 14.2266 55.7051 14.2266C56.002 14.2266 56.2617 14.166 56.4844 14.0449C56.7109 13.9199 56.8984 13.75 57.0469 13.5352C57.1953 13.3203 57.3066 13.0742 57.3809 12.7969C57.459 12.5156 57.498 12.2168 57.498 11.9004V11.7656C57.498 11.4531 57.459 11.1582 57.3809 10.8809C57.3066 10.5996 57.1934 10.3516 57.041 10.1367C56.8926 9.91797 56.7051 9.74609 56.4785 9.62109C56.2559 9.49609 55.9941 9.43359 55.6934 9.43359C55.3965 9.43359 55.1348 9.49609 54.9082 9.62109C54.6855 9.74609 54.498 9.91797 54.3457 10.1367C54.1973 10.3516 54.0859 10.5996 54.0117 10.8809C53.9375 11.1582 53.9004 11.4531 53.9004 11.7656ZM62.4844 14.2266C62.7422 14.2266 62.9805 14.1738 63.1992 14.0684C63.418 13.9629 63.5977 13.8184 63.7383 13.6348C63.8789 13.4473 63.959 13.2344 63.9785 12.9961H65.0098C64.9902 13.3711 64.8633 13.7207 64.6289 14.0449C64.3984 14.3652 64.0957 14.625 63.7207 14.8242C63.3457 15.0195 62.9336 15.1172 62.4844 15.1172C62.0078 15.1172 61.5918 15.0332 61.2363 14.8652C60.8848 14.6973 60.5918 14.4668 60.3574 14.1738C60.127 13.8809 59.9531 13.5449 59.8359 13.166C59.7227 12.7832 59.666 12.3789 59.666 11.9531V11.707C59.666 11.2812 59.7227 10.8789 59.8359 10.5C59.9531 10.1172 60.127 9.7793 60.3574 9.48633C60.5918 9.19336 60.8848 8.96289 61.2363 8.79492C61.5918 8.62695 62.0078 8.54297 62.4844 8.54297C62.9805 8.54297 63.4141 8.64453 63.7852 8.84766C64.1562 9.04688 64.4473 9.32031 64.6582 9.66797C64.873 10.0117 64.9902 10.4023 65.0098 10.8398H63.9785C63.959 10.5781 63.8848 10.3418 63.7559 10.1309C63.6309 9.91992 63.459 9.75195 63.2402 9.62695C63.0254 9.49805 62.7734 9.43359 62.4844 9.43359C62.1523 9.43359 61.873 9.5 61.6465 9.63281C61.4238 9.76172 61.2461 9.9375 61.1133 10.1602C60.9844 10.3789 60.8906 10.623 60.832 10.8926C60.7773 11.1582 60.75 11.4297 60.75 11.707V11.9531C60.75 12.2305 60.7773 12.5039 60.832 12.7734C60.8867 13.043 60.9785 13.2871 61.1074 13.5059C61.2402 13.7246 61.418 13.9004 61.6406 14.0332C61.8672 14.1621 62.1484 14.2266 62.4844 14.2266ZM68.8125 8.66016V15H67.7227V8.66016H68.8125ZM70.9395 8.66016V9.53906H65.6367V8.66016H70.9395ZM73.1777 13.2832L76.1016 8.66016H77.1914V15H76.1016V10.377L73.1777 15H72.0996V8.66016H73.1777V13.2832Z" fill="black"/>
</g>
<defs>
<filter id="filter0_d_436_2" x="0" y="0" width="109" height="31" filterUnits="userSpaceOnUse" color-interpolation-filters="sRGB">
<feFlood flood-opacity="0" result="BackgroundImageFix"/>
<feColorMatrix in="SourceAlpha" type="matrix" values="0 0 0 0 0 0 0 0 0 0 0 0 0 0 0 0 0 0 127 0" result="hardAlpha"/>
<feOffset dy="4"/>
<feGaussianBlur stdDeviation="2"/>
<feComposite in2="hardAlpha" operator="out"/>
<feColorMatrix type="matrix" values="0 0 0 0 0 0 0 0 0 0 0 0 0 0 0 0 0 0 0.25 0"/>
<feBlend mode="normal" in2="BackgroundImageFix" result="effect1_dropShadow_436_2"/>
<feBlend mode="normal" in="SourceGraphic" in2="effect1_dropShadow_436_2" result="shape"/>
</filter>
<filter id="filter1_d_436_2" x="26.9902" y="6.46875" width="54.2012" height="16.6484" filterUnits="userSpaceOnUse" color-interpolation-filters="sRGB">
<feFlood flood-opacity="0" result="BackgroundImageFix"/>
<feColorMatrix in="SourceAlpha" type="matrix" values="0 0 0 0 0 0 0 0 0 0 0 0 0 0 0 0 0 0 127 0" result="hardAlpha"/>
<feOffset dy="4"/>
<feGaussianBlur stdDeviation="2"/>
<feComposite in2="hardAlpha" operator="out"/>
<feColorMatrix type="matrix" values="0 0 0 0 0 0 0 0 0 0 0 0 0 0 0 0 0 0 0.25 0"/>
<feBlend mode="normal" in2="BackgroundImageFix" result="effect1_dropShadow_436_2"/>
<feBlend mode="normal" in="SourceGraphic" in2="effect1_dropShadow_436_2" result="shape"/>
</filter>
</defs>
</svg>
