<svg width="109" height="31" viewBox="0 0 109 31" fill="none" xmlns="http://www.w3.org/2000/svg">
<g filter="url(#filter0_d_436_5)">
<rect x="4" width="101" height="23" rx="11.5" fill="#FBC900"/>
<rect x="4.5" y="0.5" width="100" height="22" rx="11" stroke="black" stroke-opacity="0.15"/>
</g>
<g filter="url(#filter1_d_436_5)">
<path d="M33.5059 6.46875V15H32.3809V7.39453H28.1738V15H27.043V6.46875H33.5059ZM39.1309 13.916V10.6523C39.1309 10.4023 39.0801 10.1855 38.9785 10.002C38.8809 9.81445 38.7324 9.66992 38.5332 9.56836C38.334 9.4668 38.0879 9.41602 37.7949 9.41602C37.5215 9.41602 37.2812 9.46289 37.0742 9.55664C36.8711 9.65039 36.7109 9.77344 36.5938 9.92578C36.4805 10.0781 36.4238 10.2422 36.4238 10.418H35.3398C35.3398 10.1914 35.3984 9.9668 35.5156 9.74414C35.6328 9.52148 35.8008 9.32031 36.0195 9.14062C36.2422 8.95703 36.5078 8.8125 36.8164 8.70703C37.1289 8.59766 37.4766 8.54297 37.8594 8.54297C38.3203 8.54297 38.7266 8.62109 39.0781 8.77734C39.4336 8.93359 39.7109 9.16992 39.9102 9.48633C40.1133 9.79883 40.2148 10.1914 40.2148 10.6641V13.6172C40.2148 13.8281 40.2324 14.0527 40.2676 14.291C40.3066 14.5293 40.3633 14.7344 40.4375 14.9062V15H39.3066C39.252 14.875 39.209 14.709 39.1777 14.502C39.1465 14.291 39.1309 14.0957 39.1309 13.916ZM39.3184 11.1562L39.3301 11.918H38.2344C37.9258 11.918 37.6504 11.9434 37.4082 11.9941C37.166 12.041 36.9629 12.1133 36.7988 12.2109C36.6348 12.3086 36.5098 12.4316 36.4238 12.5801C36.3379 12.7246 36.2949 12.8945 36.2949 13.0898C36.2949 13.2891 36.3398 13.4707 36.4297 13.6348C36.5195 13.7988 36.6543 13.9297 36.834 14.0273C37.0176 14.1211 37.2422 14.168 37.5078 14.168C37.8398 14.168 38.1328 14.0977 38.3867 13.957C38.6406 13.8164 38.8418 13.6445 38.9902 13.4414C39.1426 13.2383 39.2246 13.041 39.2363 12.8496L39.6992 13.3711C39.6719 13.5352 39.5977 13.7168 39.4766 13.916C39.3555 14.1152 39.1934 14.3066 38.9902 14.4902C38.791 14.6699 38.5527 14.8203 38.2754 14.9414C38.002 15.0586 37.6934 15.1172 37.3496 15.1172C36.9199 15.1172 36.543 15.0332 36.2188 14.8652C35.8984 14.6973 35.6484 14.4727 35.4688 14.1914C35.293 13.9062 35.2051 13.5879 35.2051 13.2363C35.2051 12.8965 35.2715 12.5977 35.4043 12.3398C35.5371 12.0781 35.7285 11.8613 35.9785 11.6895C36.2285 11.5137 36.5293 11.3809 36.8809 11.291C37.2324 11.2012 37.625 11.1562 38.0586 11.1562H39.3184ZM43.0039 9.87891V17.4375H41.9141V8.66016H42.9102L43.0039 9.87891ZM47.2754 11.7773V11.9004C47.2754 12.3613 47.2207 12.7891 47.1113 13.1836C47.002 13.5742 46.8418 13.9141 46.6309 14.2031C46.4238 14.4922 46.168 14.7168 45.8633 14.877C45.5586 15.0371 45.209 15.1172 44.8145 15.1172C44.4121 15.1172 44.0566 15.0508 43.748 14.918C43.4395 14.7852 43.1777 14.5918 42.9629 14.3379C42.748 14.084 42.5762 13.7793 42.4473 13.4238C42.3223 13.0684 42.2363 12.668 42.1895 12.2227V11.5664C42.2363 11.0977 42.3242 10.6777 42.4531 10.3066C42.582 9.93555 42.752 9.61914 42.9629 9.35742C43.1777 9.0918 43.4375 8.89062 43.7422 8.75391C44.0469 8.61328 44.3984 8.54297 44.7969 8.54297C45.1953 8.54297 45.5488 8.62109 45.8574 8.77734C46.166 8.92969 46.4258 9.14844 46.6367 9.43359C46.8477 9.71875 47.0059 10.0605 47.1113 10.459C47.2207 10.8535 47.2754 11.293 47.2754 11.7773ZM46.1855 11.9004V11.7773C46.1855 11.4609 46.1523 11.1641 46.0859 10.8867C46.0195 10.6055 45.916 10.3594 45.7754 10.1484C45.6387 9.93359 45.4629 9.76562 45.248 9.64453C45.0332 9.51953 44.7773 9.45703 44.4805 9.45703C44.207 9.45703 43.9688 9.50391 43.7656 9.59766C43.5664 9.69141 43.3965 9.81836 43.2559 9.97852C43.1152 10.1348 43 10.3145 42.9102 10.5176C42.8242 10.7168 42.7598 10.9238 42.7168 11.1387V12.6562C42.7949 12.9297 42.9043 13.1875 43.0449 13.4297C43.1855 13.668 43.373 13.8613 43.6074 14.0098C43.8418 14.1543 44.1367 14.2266 44.4922 14.2266C44.7852 14.2266 45.0371 14.166 45.248 14.0449C45.4629 13.9199 45.6387 13.75 45.7754 13.5352C45.916 13.3203 46.0195 13.0742 46.0859 12.7969C46.1523 12.5156 46.1855 12.2168 46.1855 11.9004ZM50.7734 8.66016V15H49.6836V8.66016H50.7734ZM52.9004 8.66016V9.53906H47.5977V8.66016H52.9004ZM58.2676 11.4082V12.2871H54.916V11.4082H58.2676ZM55.1445 8.66016V15H54.0605V8.66016H55.1445ZM59.1465 8.66016V15H58.0566V8.66016H59.1465ZM63.5234 15.1172C63.082 15.1172 62.6816 15.043 62.3223 14.8945C61.9668 14.7422 61.6602 14.5293 61.4023 14.2559C61.1484 13.9824 60.9531 13.6582 60.8164 13.2832C60.6797 12.9082 60.6113 12.498 60.6113 12.0527V11.8066C60.6113 11.291 60.6875 10.832 60.8398 10.4297C60.9922 10.0234 61.1992 9.67969 61.4609 9.39844C61.7227 9.11719 62.0195 8.9043 62.3516 8.75977C62.6836 8.61523 63.0273 8.54297 63.3828 8.54297C63.8359 8.54297 64.2266 8.62109 64.5547 8.77734C64.8867 8.93359 65.1582 9.15234 65.3691 9.43359C65.5801 9.71094 65.7363 10.0391 65.8379 10.418C65.9395 10.793 65.9902 11.2031 65.9902 11.6484V12.1348H61.2559V11.25H64.9062V11.168C64.8906 10.8867 64.832 10.6133 64.7305 10.3477C64.6328 10.082 64.4766 9.86328 64.2617 9.69141C64.0469 9.51953 63.7539 9.43359 63.3828 9.43359C63.1367 9.43359 62.9102 9.48633 62.7031 9.5918C62.4961 9.69336 62.3184 9.8457 62.1699 10.0488C62.0215 10.252 61.9062 10.5 61.8242 10.793C61.7422 11.0859 61.7012 11.4238 61.7012 11.8066V12.0527C61.7012 12.3535 61.7422 12.6367 61.8242 12.9023C61.9102 13.1641 62.0332 13.3945 62.1934 13.5938C62.3574 13.793 62.5547 13.9492 62.7852 14.0625C63.0195 14.1758 63.2852 14.2324 63.582 14.2324C63.9648 14.2324 64.2891 14.1543 64.5547 13.998C64.8203 13.8418 65.0527 13.6328 65.252 13.3711L65.9082 13.8926C65.7715 14.0996 65.5977 14.2969 65.3867 14.4844C65.1758 14.6719 64.916 14.8242 64.6074 14.9414C64.3027 15.0586 63.9414 15.1172 63.5234 15.1172ZM68.3398 9.87891V17.4375H67.25V8.66016H68.2461L68.3398 9.87891ZM72.6113 11.7773V11.9004C72.6113 12.3613 72.5566 12.7891 72.4473 13.1836C72.3379 13.5742 72.1777 13.9141 71.9668 14.2031C71.7598 14.4922 71.5039 14.7168 71.1992 14.877C70.8945 15.0371 70.5449 15.1172 70.1504 15.1172C69.748 15.1172 69.3926 15.0508 69.084 14.918C68.7754 14.7852 68.5137 14.5918 68.2988 14.3379C68.084 14.084 67.9121 13.7793 67.7832 13.4238C67.6582 13.0684 67.5723 12.668 67.5254 12.2227V11.5664C67.5723 11.0977 67.6602 10.6777 67.7891 10.3066C67.918 9.93555 68.0879 9.61914 68.2988 9.35742C68.5137 9.0918 68.7734 8.89062 69.0781 8.75391C69.3828 8.61328 69.7344 8.54297 70.1328 8.54297C70.5312 8.54297 70.8848 8.62109 71.1934 8.77734C71.502 8.92969 71.7617 9.14844 71.9727 9.43359C72.1836 9.71875 72.3418 10.0605 72.4473 10.459C72.5566 10.8535 72.6113 11.293 72.6113 11.7773ZM71.5215 11.9004V11.7773C71.5215 11.4609 71.4883 11.1641 71.4219 10.8867C71.3555 10.6055 71.252 10.3594 71.1113 10.1484C70.9746 9.93359 70.7988 9.76562 70.584 9.64453C70.3691 9.51953 70.1133 9.45703 69.8164 9.45703C69.543 9.45703 69.3047 9.50391 69.1016 9.59766C68.9023 9.69141 68.7324 9.81836 68.5918 9.97852C68.4512 10.1348 68.3359 10.3145 68.2461 10.5176C68.1602 10.7168 68.0957 10.9238 68.0527 11.1387V12.6562C68.1309 12.9297 68.2402 13.1875 68.3809 13.4297C68.5215 13.668 68.709 13.8613 68.9434 14.0098C69.1777 14.1543 69.4727 14.2266 69.8281 14.2266C70.1211 14.2266 70.373 14.166 70.584 14.0449C70.7988 13.9199 70.9746 13.75 71.1113 13.5352C71.252 13.3203 71.3555 13.0742 71.4219 12.7969C71.4883 12.5156 71.5215 12.2168 71.5215 11.9004ZM74.8848 10.8398H76.7891C77.3008 10.8398 77.7324 10.9297 78.084 11.1094C78.4355 11.2852 78.7012 11.5293 78.8809 11.8418C79.0645 12.1504 79.1562 12.502 79.1562 12.8965C79.1562 13.1895 79.1055 13.4648 79.0039 13.7227C78.9023 13.9766 78.75 14.1992 78.5469 14.3906C78.3477 14.582 78.0996 14.7324 77.8027 14.8418C77.5098 14.9473 77.1719 15 76.7891 15H74.0938V8.66016H75.1777V14.1094H76.7891C77.1016 14.1094 77.3516 14.0527 77.5391 13.9395C77.7266 13.8262 77.8613 13.6797 77.9434 13.5C78.0254 13.3203 78.0664 13.1328 78.0664 12.9375C78.0664 12.7461 78.0254 12.5586 77.9434 12.375C77.8613 12.1914 77.7266 12.0391 77.5391 11.918C77.3516 11.793 77.1016 11.7305 76.7891 11.7305H74.8848V10.8398ZM81.4121 8.66016V15H80.3281V8.66016H81.4121Z" fill="black"/>
</g>
<defs>
<filter id="filter0_d_436_5" x="0" y="0" width="109" height="31" filterUnits="userSpaceOnUse" color-interpolation-filters="sRGB">
<feFlood flood-opacity="0" result="BackgroundImageFix"/>
<feColorMatrix in="SourceAlpha" type="matrix" values="0 0 0 0 0 0 0 0 0 0 0 0 0 0 0 0 0 0 127 0" result="hardAlpha"/>
<feOffset dy="4"/>
<feGaussianBlur stdDeviation="2"/>
<feComposite in2="hardAlpha" operator="out"/>
<feColorMatrix type="matrix" values="0 0 0 0 0 0 0 0 0 0 0 0 0 0 0 0 0 0 0.25 0"/>
<feBlend mode="normal" in2="BackgroundImageFix" result="effect1_dropShadow_436_5"/>
<feBlend mode="normal" in="SourceGraphic" in2="effect1_dropShadow_436_5" result="shape"/>
</filter>
<filter id="filter1_d_436_5" x="23.043" y="6.46875" width="62.3691" height="18.9688" filterUnits="userSpaceOnUse" color-interpolation-filters="sRGB">
<feFlood flood-opacity="0" result="BackgroundImageFix"/>
<feColorMatrix in="SourceAlpha" type="matrix" values="0 0 0 0 0 0 0 0 0 0 0 0 0 0 0 0 0 0 127 0" result="hardAlpha"/>
<feOffset dy="4"/>
<feGaussianBlur stdDeviation="2"/>
<feComposite in2="hardAlpha" operator="out"/>
<feColorMatrix type="matrix" values="0 0 0 0 0 0 0 0 0 0 0 0 0 0 0 0 0 0 0.25 0"/>
<feBlend mode="normal" in2="BackgroundImageFix" result="effect1_dropShadow_436_5"/>
<feBlend mode="normal" in="SourceGraphic" in2="effect1_dropShadow_436_5" result="shape"/>
</filter>
</defs>
</svg>
